<svg xmlns="http://www.w3.org/2000/svg" xmlns:xlink="http://www.w3.org/1999/xlink" viewBox="0 0 4788.81 2461">
	<defs>
	<linearGradient id="a" x1="1096.69" y1="2316.7" x2="3501.68" y2="529.99" gradientUnits="userSpaceOnUse">
			<stop offset="0%" stop-color="#92bbf1">
				<animate attributeName="stop-color" values="#92bbf1; #9bebca; #92bbf1" dur="3s" repeatCount="indefinite"></animate>
			</stop>

			<stop offset="100%" stop-color="#9bebca">
				<animate attributeName="stop-color" values="#9bebca; #92bbf1; #9bebca" dur="3s" repeatCount="indefinite"></animate>
			</stop>
</linearGradient>
</defs>
<title>Artboard 1 copy 2</title>
<g style="isolation:isolate">
	<path d="M3341.59,1112.6C3429.92,1077.08,3514,1031.39,3603,983,3797.52,877.28,3998.68,768,4254.11,768V405.55c-141.49,0-280.88,26.6-426.13,81.33-124.13,46.76-233.11,106-338.5,163.27-160.59,87.28-299.28,162.67-439.61,162.67h-1320c-140.33,0-279-75.39-439.61-162.67-105.39-57.28-214.37-116.51-338.49-163.27-145.26-54.73-284.65-81.33-426.14-81.33V768C781,768,982.2,877.28,1176.74,983c89,48.37,173.06,94.06,261.39,129.58,17.86,7.18,34.74,14.34,50.09,20.47a13.42,13.42,0,0,1,8.44,12.87l-.13,3.9a13.41,13.41,0,0,1-15.4,12.85c-41.42-6.23-78.72-14.83-119.7-25.85-81.43-21.88-135.24-50.06-197.54-82.69-63.58-33.31-135.65-71.06-236.49-98.67-110.37-30.22-238-35.85-401.79-35.85V1282c140.8,0,252.33,3.35,340.94,27.61,55.34,15.16,97.93,33.77,140.32,55a712.79,712.79,0,0,1-109.11,39.26C801.81,1430,681.69,1430,527.23,1430v362.4c177.49,0,313.35-2.24,431-34.29,107.4-29.24,182.1-68.88,248-103.85,59.92-31.79,111.66-59.25,187.11-80.18,27.48-7.63,56.9-13.38,88-18.41a13.42,13.42,0,0,1,15.57,13.24h0a13.4,13.4,0,0,1-9.1,12.7c-16.08,5.44-32.95,11-49.72,17.74-88.33,35.52-172.39,81.21-261.39,129.58C982.2,1834.69,781,1944,525.61,1944v362.4c141.49,0,280.88-26.6,426.14-81.33,124.12-46.76,233.1-106,338.49-163.28,160.59-87.28,299.28-162.66,439.61-162.66h1320c140.33,0,279,75.38,439.61,162.66,105.39,57.29,214.37,116.52,338.5,163.28,145.25,54.73,284.64,81.33,426.13,81.33V1944c-255.43,0-456.59-109.33-651.13-215.07-89-48.37-173.06-94.06-261.39-129.58-16.81-6.75-33.1-12.95-49-18.6a13.4,13.4,0,0,1-8.93-12.64h0a13.43,13.43,0,0,1,15.66-13.25,859.9,859.9,0,0,1,87,19.22c75.45,20.93,127.2,48.39,187.12,80.18,65.9,35,140.6,74.61,248,103.85,117.69,32,253.56,34.29,431,34.29V1430c-154.46,0-274.58,0-370.53-26.14a712.79,712.79,0,0,1-109.11-39.26c42.39-21.21,85-39.82,140.32-55,88.62-24.26,200.14-27.61,340.94-27.61V919.63c-163.75,0-291.42,5.63-401.78,35.85-100.85,27.61-172.92,65.36-236.5,98.67-62.3,32.63-116.11,60.81-197.53,82.69-40.82,11-78,19.55-119.22,25.78a13.43,13.43,0,0,1-15.43-13.28v-4.53a13.41,13.41,0,0,1,8.53-12.5C3307.37,1126.37,3323.68,1119.8,3341.59,1112.6Z" style="fill:url(#a)"/>
<g style="opacity:0.2">
	<path d="M1659.92,1087.84a13.3,13.3,0,0,0-4,.65L1608.79,1104l-8,37.84-11,52,29.81,26.66,7.46,6.65a12.41,12.41,0,0,0,8.38,3.22,12.61,12.61,0,0,0,12.42-10.08l24.4-117.2a12.66,12.66,0,0,0-9.8-15A12.92,12.92,0,0,0,1659.92,1087.84Z" style="fill:#fff;opacity:0.589999973773956;isolation:isolate"/>
<path d="M1617.75,1136.27l-17,5.6-11,52-1.68,7.9a10.29,10.29,0,0,1-16.94,5.54l-45.43-40.67-21.69,7.15a12.66,12.66,0,0,0-4.39,21.46l89.31,79.72a12.66,12.66,0,0,0,20.81-6.86l9.82-47.58,14.48-69.62a12.64,12.64,0,0,0-16.34-14.59" style="fill:#fff;opacity:0.800000011920929;isolation:isolate"/>
<path d="M1499.67,1136.42l72.26,64.84a8.47,8.47,0,0,0,14-4.56l21.09-99.92a9.58,9.58,0,0,0-12.39-11.1l-96.6,31.64a8.52,8.52,0,0,0-5.42,10.75,8.33,8.33,0,0,0,1.11,2.21,6.92,6.92,0,0,0,.69.87A59.67,59.67,0,0,0,1499.67,1136.42Z" style="fill:#fff"/>
<path d="M2201.4,1200.85a12.66,12.66,0,0,0-4,.65L2150.27,1217l-8,37.84-11,52,29.8,26.66,7.46,6.66a12.64,12.64,0,0,0,20.81-6.87l24.4-117.2a12.66,12.66,0,0,0-9.8-15A12.9,12.9,0,0,0,2201.4,1200.85Z" style="fill:#fff;opacity:0.589999973773956;isolation:isolate"/>
<path d="M2159.22,1249.27l-17,5.6-11,52-1.69,7.9a10.3,10.3,0,0,1-16.93,5.55l-45.43-40.68-21.69,7.15a12.65,12.65,0,0,0-4.4,21.46l89.32,79.73a12.65,12.65,0,0,0,20.8-6.87l9.82-47.58,14.48-69.62a12.64,12.64,0,0,0-16.34-14.59" style="fill:#fff;opacity:0.800000011920929;isolation:isolate"/>
<path d="M2041.14,1249.42l72.27,64.85a8.47,8.47,0,0,0,12-.52,8.39,8.39,0,0,0,2.06-4l21.1-99.92a9.59,9.59,0,0,0-12.39-11.1l-96.6,31.64a8.51,8.51,0,0,0-4.31,13,7.64,7.64,0,0,0,.69.86A58.53,58.53,0,0,0,2041.14,1249.42Z" style="fill:#fff"/>
<path d="M2742.87,1313.85a12.75,12.75,0,0,0-4,.65L2691.74,1330l-8,37.84-11,52,29.8,26.65,7.46,6.66a12.49,12.49,0,0,0,8.38,3.22,12.62,12.62,0,0,0,12.43-10.09l24.39-117.19a12.65,12.65,0,0,0-9.8-15A12.14,12.14,0,0,0,2742.87,1313.85Z" style="fill:#fff;opacity:0.589999973773956;isolation:isolate"/>
<path d="M2700.7,1362.28l-17,5.6-11,52-1.69,7.9a10.29,10.29,0,0,1-12.21,7.93,10.16,10.16,0,0,1-4.72-2.39l-45.44-40.68-21.69,7.16a12.66,12.66,0,0,0-4.39,21.46l89.31,79.72a12.66,12.66,0,0,0,20.81-6.86l9.82-47.59,14.48-69.61a12.64,12.64,0,0,0-16.34-14.6" style="fill:#fff;opacity:0.800000011920929;isolation:isolate"/>
<path d="M2582.62,1362.43l72.26,64.84a8.48,8.48,0,0,0,12-.52,8.39,8.39,0,0,0,2.06-4l21.1-99.91a9.6,9.6,0,0,0-12.39-11.11l-96.6,31.65a8.51,8.51,0,0,0-5.42,10.75,8.62,8.62,0,0,0,1.1,2.21,9.28,9.28,0,0,0,.69.86A58.76,58.76,0,0,0,2582.62,1362.43Z" style="fill:#fff"/>
<path d="M3284.35,1426.85a13,13,0,0,0-4,.66L3233.22,1443l-8,37.84-11,52,29.8,26.66,7.46,6.65a12.48,12.48,0,0,0,8.38,3.23,12.63,12.63,0,0,0,12.43-10.09l24.39-117.2a12.66,12.66,0,0,0-9.8-15A13.63,13.63,0,0,0,3284.35,1426.85Z" style="fill:#fff;opacity:0.589999973773956;isolation:isolate"/>
<path d="M3242.18,1475.28l-17,5.6-11,52-1.69,7.9a10.31,10.31,0,0,1-16.94,5.55l-45.43-40.68-21.69,7.15a12.66,12.66,0,0,0-4.39,21.46l89.31,79.73a12.66,12.66,0,0,0,20.81-6.87l9.82-47.58,14.48-69.62a12.64,12.64,0,0,0-16.34-14.59" style="fill:#fff;opacity:0.800000011920929;isolation:isolate"/>
<path d="M3124.1,1475.43l72.26,64.84a8.48,8.48,0,0,0,12-.51,8.56,8.56,0,0,0,2.06-4l21.1-99.92a9.58,9.58,0,0,0-12.39-11.1l-96.6,31.64a8.52,8.52,0,0,0-5.43,10.75,8.71,8.71,0,0,0,1.11,2.22,10.82,10.82,0,0,0,.69.86A58.26,58.26,0,0,0,3124.1,1475.43Z" style="fill:#fff"/>
<path d="M1930.66,862.22a12.66,12.66,0,0,0-4,.65l-47.12,15.54-8,37.83-11,52,29.8,26.65,7.46,6.66a12.64,12.64,0,0,0,20.81-6.87L1943,877.47a12.66,12.66,0,0,0-9.8-15A12.21,12.21,0,0,0,1930.66,862.22Z" style="fill:#fff;opacity:0.589999973773956;isolation:isolate"/>
<path d="M1888.48,910.64l-17,5.6-11,52-1.69,7.9a10.3,10.3,0,0,1-16.93,5.54L1796.49,941l-21.69,7.16a12.65,12.65,0,0,0-4.39,21.46l89.31,79.72a12.66,12.66,0,0,0,17.87-1,12.82,12.82,0,0,0,2.94-5.83l9.81-47.59,14.48-69.61a12.64,12.64,0,0,0-16.34-14.6" style="fill:#fff;opacity:0.800000011920929;isolation:isolate"/>
<path d="M1770.41,910.8l72.26,64.84a8.49,8.49,0,0,0,14-4.57l21.09-99.91a9.6,9.6,0,0,0-12.39-11.11l-96.6,31.65a8.52,8.52,0,0,0-5.42,10.75,8.33,8.33,0,0,0,1.11,2.21,6.84,6.84,0,0,0,.69.86A57.41,57.41,0,0,0,1770.41,910.8Z" style="fill:#fff"/>
<path d="M2472.13,975.22a13,13,0,0,0-4,.66L2421,991.41l-8,37.84-11,52,29.8,26.66,7.46,6.65a12.5,12.5,0,0,0,8.38,3.23,12.63,12.63,0,0,0,12.43-10.09l24.39-117.2a12.65,12.65,0,0,0-9.8-15A13.54,13.54,0,0,0,2472.13,975.22Z" style="fill:#fff;opacity:0.589999973773956;isolation:isolate"/>
<path d="M2430,1023.65l-17,5.6-11,52-1.69,7.9a10.3,10.3,0,0,1-16.93,5.55L2338,1054l-21.69,7.15a12.66,12.66,0,0,0-4.39,21.46l89.31,79.73a12.65,12.65,0,0,0,20.81-6.87l9.82-47.58,14.48-69.62a12.64,12.64,0,0,0-16.34-14.59" style="fill:#fff;opacity:0.800000011920929;isolation:isolate"/>
<path d="M2311.88,1023.8l72.27,64.84a8.47,8.47,0,0,0,14-4.56l21.1-99.92a9.58,9.58,0,0,0-12.39-11.1l-96.6,31.64a8.51,8.51,0,0,0-5.42,10.75,8.39,8.39,0,0,0,1.11,2.22,7.64,7.64,0,0,0,.69.86A57.19,57.19,0,0,0,2311.88,1023.8Z" style="fill:#fff"/>
<path d="M3013.61,1088.23a12.75,12.75,0,0,0-4,.65l-47.12,15.53-8,37.84-11,52,29.8,26.65,7.46,6.66a12.64,12.64,0,0,0,20.81-6.87L3026,1103.48a12.66,12.66,0,0,0-9.8-15A12.14,12.14,0,0,0,3013.61,1088.23Z" style="fill:#fff;opacity:0.589999973773956;isolation:isolate"/>
<path d="M2971.44,1136.65l-17,5.6-11,52-1.69,7.9a10.31,10.31,0,0,1-16.94,5.54L2879.44,1167l-21.69,7.16a12.66,12.66,0,0,0-4.39,21.46l89.31,79.72a12.66,12.66,0,0,0,20.81-6.87l9.82-47.58,14.48-69.61a12.64,12.64,0,0,0-16.34-14.6" style="fill:#fff;opacity:0.800000011920929;isolation:isolate"/>
<path d="M2853.36,1136.81l72.26,64.84a8.48,8.48,0,0,0,14-4.57l21.1-99.91a9.6,9.6,0,0,0-12.39-11.11l-96.6,31.65a8.5,8.5,0,0,0-5.42,10.75,8.78,8.78,0,0,0,1.1,2.21,10.82,10.82,0,0,0,.69.86A58.76,58.76,0,0,0,2853.36,1136.81Z" style="fill:#fff"/>
<path d="M2115.58,810.42l14.88,13.28a12.65,12.65,0,0,0,20.8-6.87l1.33-6.41Z" style="fill:#fff;opacity:0.800000011920929;isolation:isolate"/>
<path d="M2682.29,810.42l-9.53,45.18,29.8,26.66,7.46,6.65a12.44,12.44,0,0,0,8.38,3.22,12.62,12.62,0,0,0,12.43-10.08l14.91-71.63Z" style="fill:#fff;opacity:0.589999973773956;isolation:isolate"/>
<path d="M2682.29,810.42l-9.53,45.18-1.69,7.9a10.29,10.29,0,0,1-16.93,5.54l-45.44-40.67L2587,835.52a12.66,12.66,0,0,0-4.39,21.46l89.31,79.72a12.66,12.66,0,0,0,20.81-6.86l9.82-47.58L2717,812.64a12,12,0,0,0,.25-2.22Z" style="fill:#fff;opacity:0.800000011920929;isolation:isolate"/>
<path d="M2596.27,810.42l58.61,52.6a8.48,8.48,0,0,0,14-4.56l10.14-48Z" style="fill:#fff"/>
<path d="M3284.35,862.61a12.71,12.71,0,0,0-4,.65l-47.12,15.53-8,37.84-11,52,29.8,26.66,7.46,6.66a12.64,12.64,0,0,0,20.81-6.87l24.39-117.2a12.66,12.66,0,0,0-9.8-15A12.83,12.83,0,0,0,3284.35,862.61Z" style="fill:#fff;opacity:0.589999973773956;isolation:isolate"/>
<path d="M3242.18,911l-17,5.6-11,52-1.69,7.9a10.31,10.31,0,0,1-16.94,5.55l-45.43-40.68-21.69,7.15A12.65,12.65,0,0,0,3124.1,970l89.31,79.73a12.66,12.66,0,0,0,20.81-6.87l9.82-47.58,14.48-69.62a12.64,12.64,0,0,0-16.34-14.59" style="fill:#fff;opacity:0.800000011920929;isolation:isolate"/>
<path d="M3124.1,911.18,3196.36,976a8.48,8.48,0,0,0,14-4.57l21.1-99.92a9.58,9.58,0,0,0-7.38-11.37,9.47,9.47,0,0,0-5,.27l-96.6,31.64a8.52,8.52,0,0,0-5.43,10.76,8.81,8.81,0,0,0,1.11,2.21,10.82,10.82,0,0,0,.69.86A58.26,58.26,0,0,0,3124.1,911.18Z" style="fill:#fff"/>
<path d="M1659.92,1652.09a12.71,12.71,0,0,0-4,.65l-47.12,15.54-8,37.84-11,52,29.81,26.66,7.46,6.65a12.45,12.45,0,0,0,8.38,3.22,12.61,12.61,0,0,0,12.42-10.09l24.4-117.19a12.66,12.66,0,0,0-9.8-15A12.21,12.21,0,0,0,1659.92,1652.09Z" style="fill:#fff;opacity:0.589999973773956;isolation:isolate"/>
<path d="M1617.75,1700.52l-17,5.6-11,52-1.68,7.9a10.31,10.31,0,0,1-16.94,5.54l-45.43-40.68-21.69,7.16a12.66,12.66,0,0,0-4.39,21.46l89.31,79.72a12.66,12.66,0,0,0,17.87-1,12.82,12.82,0,0,0,2.94-5.83l9.82-47.58,14.48-69.62a12.64,12.64,0,0,0-16.34-14.6" style="fill:#fff;opacity:0.800000011920929;isolation:isolate"/>
<path d="M1499.67,1700.67l72.26,64.84a8.48,8.48,0,0,0,14-4.56l21.09-99.92a9.59,9.59,0,0,0-12.39-11.11l-96.6,31.65a8.52,8.52,0,0,0-5.42,10.75,8.33,8.33,0,0,0,1.11,2.21,6.84,6.84,0,0,0,.69.86A58.76,58.76,0,0,0,1499.67,1700.67Z" style="fill:#fff"/>
<path d="M2167.84,1903.78h18.21a12.68,12.68,0,0,0,3.3-6.24l24.4-117.2a12.66,12.66,0,0,0-9.8-15,13.71,13.71,0,0,0-2.55-.27,13,13,0,0,0-4,.66l-47.12,15.53-8,37.84-11,52,29.8,26.66Z" style="fill:#fff;opacity:0.589999973773956;isolation:isolate"/>
<path d="M2041.14,1872.47l35.08,31.31h83.62l1.24-6,14.48-69.62a12.64,12.64,0,0,0-16.34-14.59v0l-17,5.6-11,52-1.69,7.9a10.3,10.3,0,0,1-16.93,5.55l-45.43-40.68-21.69,7.15a12.66,12.66,0,0,0-4.4,21.46Z" style="fill:#fff;opacity:0.800000011920929;isolation:isolate"/>
<path d="M2041.14,1813.67l72.27,64.84a8.47,8.47,0,0,0,14-4.56l21.1-99.92a9.58,9.58,0,0,0-12.39-11.1l-96.6,31.64a8.52,8.52,0,0,0-5.42,10.75,8.39,8.39,0,0,0,1.11,2.22,7.64,7.64,0,0,0,.69.86A58.53,58.53,0,0,0,2041.14,1813.67Z" style="fill:#fff"/>
<path d="M2753.05,1903.78l2.17-10.43a12.65,12.65,0,0,0-9.8-15,12.14,12.14,0,0,0-2.55-.27,12.75,12.75,0,0,0-4,.65l-47.12,15.53-2,9.5Z" style="fill:#fff;opacity:0.589999973773956;isolation:isolate"/>
<path d="M2686.48,1903.78,2690,1887a9.6,9.6,0,0,0-12.39-11.11l-85,27.85Z" style="fill:#fff"/>
<path d="M1930.66,1426.47a12.66,12.66,0,0,0-4,.65l-47.12,15.53-8,37.84-11,52,29.8,26.65,7.46,6.66a12.64,12.64,0,0,0,20.81-6.87l24.4-117.19a12.66,12.66,0,0,0-9.8-15A12.21,12.21,0,0,0,1930.66,1426.47Z" style="fill:#fff;opacity:0.589999973773956;isolation:isolate"/>
<path d="M1888.48,1474.89l-17,5.6-11,52-1.69,7.9a10.3,10.3,0,0,1-16.93,5.54l-45.43-40.68-21.69,7.16a12.65,12.65,0,0,0-4.39,21.46l89.31,79.72a12.66,12.66,0,0,0,20.81-6.87l9.81-47.58,14.48-69.61a12.64,12.64,0,0,0-16.34-14.6" style="fill:#fff;opacity:0.800000011920929;isolation:isolate"/>
<path d="M1770.41,1475.05l72.26,64.84a8.49,8.49,0,0,0,14-4.57l21.09-99.91a9.6,9.6,0,0,0-12.39-11.11l-96.6,31.65a8.5,8.5,0,0,0-4.31,13,7.64,7.64,0,0,0,.69.86A57.41,57.41,0,0,0,1770.41,1475.05Z" style="fill:#fff"/>
<path d="M2472.13,1539.47a13.24,13.24,0,0,0-4,.65L2421,1555.66l-8,37.84-11,52,29.8,26.66,7.46,6.65a12.44,12.44,0,0,0,8.38,3.22,12.62,12.62,0,0,0,12.43-10.08l24.39-117.2a12.65,12.65,0,0,0-9.8-15A13.54,13.54,0,0,0,2472.13,1539.47Z" style="fill:#fff;opacity:0.589999973773956;isolation:isolate"/>
<path d="M2430,1587.9l-17,5.6-11,52-1.69,7.9a10.29,10.29,0,0,1-16.93,5.54L2338,1618.24l-21.69,7.15a12.66,12.66,0,0,0-4.39,21.46l89.31,79.72a12.65,12.65,0,0,0,20.81-6.86l9.82-47.58,14.48-69.62a12.64,12.64,0,0,0-16.34-14.59" style="fill:#fff;opacity:0.800000011920929;isolation:isolate"/>
<path d="M2311.88,1588.05l72.27,64.84a8.47,8.47,0,0,0,14-4.56l21.1-99.92a9.58,9.58,0,0,0-12.39-11.1l-96.6,31.64a8.51,8.51,0,0,0-5.42,10.75,8.33,8.33,0,0,0,1.11,2.21,6.92,6.92,0,0,0,.69.87A58.55,58.55,0,0,0,2311.88,1588.05Z" style="fill:#fff"/>
<path d="M3013.61,1652.48a12.75,12.75,0,0,0-4,.65l-47.12,15.53-8,37.84-11,52,29.8,26.66,7.46,6.66a12.64,12.64,0,0,0,20.81-6.87l24.39-117.2a12.66,12.66,0,0,0-9.8-15A12.83,12.83,0,0,0,3013.61,1652.48Z" style="fill:#fff;opacity:0.589999973773956;isolation:isolate"/>
<path d="M2971.44,1700.9l-17,5.6-11,52-1.69,7.9a10.31,10.31,0,0,1-16.94,5.55l-45.43-40.68-21.69,7.15a12.65,12.65,0,0,0-4.39,21.46l89.31,79.73a12.66,12.66,0,0,0,20.81-6.87l9.82-47.58,14.48-69.62a12.64,12.64,0,0,0-16.34-14.59" style="fill:#fff;opacity:0.800000011920929;isolation:isolate"/>
<path d="M2853.36,1701.05l72.26,64.85a8.48,8.48,0,0,0,14-4.57l21.1-99.92a9.59,9.59,0,0,0-12.39-11.1l-96.6,31.64a8.51,8.51,0,0,0-5.42,10.76,8.78,8.78,0,0,0,1.1,2.21,10.82,10.82,0,0,0,.69.86A58.26,58.26,0,0,0,2853.36,1701.05Z" style="fill:#fff"/>
</g>
<path d="M4222.72,1792.42q17.61,0,34.54-.06V1430q-16.91,0-34.54,0Z" style="fill:#59dda8;opacity:0.6000000000000001"/>
<path d="M4257.26,406.48c-11.94-.58-23.89-.93-35.86-.93V768c12.11,0,24.05.4,35.86,1.12Z" style="fill:#59dda8;opacity:0.6000000000000001"/>
<path d="M4257.26,1942.9c-11.81.72-23.75,1.12-35.86,1.12v362.4c12,0,23.92-.36,35.86-.93Z" style="fill:#59dda8;opacity:0.6000000000000001"/>
<path d="M4257.26,919.79q-17.58-.16-35.86-.16V1282c12.24,0,24.16.06,35.86.15Z" style="fill:#59dda8;opacity:0.6000000000000001"/>
<path d="M525.81,1792.42c11.74,0,23.23,0,34.54-.06V1430q-16.92,0-34.54,0Z" style="fill:#4e90e5"/>
<path d="M560.35,406.48c-11.94-.58-23.89-.93-35.86-.93V768c12.11,0,24,.4,35.86,1.12Z" style="fill:#4e90e5"/>
<path d="M560.35,1942.9c-11.81.72-23.75,1.12-35.86,1.12v362.4c12,0,23.92-.36,35.86-.93Z" style="fill:#4e90e5"/>
<path d="M560.35,919.79q-17.58-.16-35.86-.16V1282c12.24,0,24.15.06,35.86.15Z" style="fill:#4e90e5"/>
<circle cx="2486.22" cy="1552.14" r="14.45" style="fill:#223460;opacity:0.5"/>
<path d="M2298.33,1542.5V1398a4.81,4.81,0,0,1,4.81-4.82h173.45a4.82,4.82,0,0,1,4.82,4.82v91.54H2491V1398a14.47,14.47,0,0,0-14.45-14.46H2303.14a14.48,14.48,0,0,0-14.45,14.46v163.81a14.48,14.48,0,0,0,14.45,14.45h120.45v-9.64H2303.14a4.81,4.81,0,0,1-4.81-4.81v-5.71c0,.54,3.12.89,4.81.89h120.45v-9.64H2303.14A4.81,4.81,0,0,1,2298.33,1542.5Z" style="fill:#223460"/>
<path d="M2529.58,1537.69h-2.32c-.54,0-1.17-3-1.84-4.28l1.69-1.66a9.6,9.6,0,0,0,0-13.59l-6.81-6.72a9.42,9.42,0,0,0-6.82-2.66h0a9.41,9.41,0,0,0-6.8,2.65l-1.78,1.61c-1.37-.65-4.21-1.23-4.21-1.75v-2.51a9.65,9.65,0,0,0-9.64-9.64h-9.63a9.65,9.65,0,0,0-9.64,9.64v2.51c0,.51-2.84,1.18-4.21,1.84l-1.77-1.7a9.45,9.45,0,0,0-6.81-2.65h0a9.41,9.41,0,0,0-6.81,2.65l-6.82,6.65a9.65,9.65,0,0,0,0,13.62l1.69,1.69c-.67,1.24-1.3,4.3-1.84,4.3h-2.33a9.64,9.64,0,0,0-9.63,9.63V1557a9.64,9.64,0,0,0,9.63,9.63h2.33c.54,0,1.17,3,1.84,4.29l-1.69,1.66a9.58,9.58,0,0,0,0,13.58l6.81,6.73a9.41,9.41,0,0,0,6.81,2.65h0a9.44,9.44,0,0,0,6.81-2.65l1.77-1.61c1.38.66,4.22,1.24,4.22,1.75v2.51a9.65,9.65,0,0,0,9.64,9.64H2491a9.65,9.65,0,0,0,9.64-9.64V1593c0-.51,2.84-1.17,4.21-1.83l1.77,1.69a9.41,9.41,0,0,0,6.81,2.65h0a9.41,9.41,0,0,0,6.81-2.65l6.81-6.64a9.63,9.63,0,0,0,0-13.62l-1.68-1.69c.67-1.25,1.29-4.31,1.84-4.31h2.32a9.64,9.64,0,0,0,9.64-9.63v-9.64A9.64,9.64,0,0,0,2529.58,1537.69Zm0,19.27h-10.07l-.74,3.91a19.47,19.47,0,0,1-3.08,7.62l-2.34,4,6.94,6.94-6.81,6.81-6.94-6.93-3.22,1.9a33.34,33.34,0,0,1-8.66,3.58l-3.62.94v9.81h-9.63v-9.81l-3.62-.93a33.43,33.43,0,0,1-8.67-3.59l-3.21-1.9-6.94,6.94-6.81-6.82,6.93-6.93-2.34-4a19.62,19.62,0,0,1-3.08-7.62l-.74-3.92h-10.07v-9.64h10.07l.74-3.91a19.37,19.37,0,0,1,3.08-7.6l2.34-4-6.93-6.93,6.81-6.82,6.94,6.94,3.21-1.9a33.43,33.43,0,0,1,8.67-3.59l3.62-.93v-9.82H2491v9.82l3.62.93a33.34,33.34,0,0,1,8.66,3.58l3.22,1.9,6.94-6.93,6.81,6.81-6.94,6.93,2.35,4a19.58,19.58,0,0,1,3.07,7.6l.74,3.92h10.07Z" style="fill:#223460"/>
<path d="M2486.22,1532.87a19.27,19.27,0,1,0,19.27,19.27A19.29,19.29,0,0,0,2486.22,1532.87Zm0,28.91a9.64,9.64,0,1,1,9.64-9.64A9.65,9.65,0,0,1,2486.22,1561.78Z" style="fill:#223460"/>
<path d="M2433.23,1528.05v-68.13c9.63-2.16,14.45-9.63,14.45-18.59a19.25,19.25,0,0,0-14.45-18.59v-10.32h-9.64v10.32a19.18,19.18,0,0,0,0,37.18v68.13Zm-14.46-86.72a9.64,9.64,0,1,1,9.64,9.64A9.65,9.65,0,0,1,2418.77,1441.33Z" style="fill:#223460"/>
<path d="M2394.68,1528.05v-20c9.64-2.16,14.46-9.64,14.46-18.59a19.24,19.24,0,0,0-14.46-18.59v-58.5h-9.63v58.5a19.25,19.25,0,0,0-14.46,18.59c0,9,4.82,16.43,14.46,18.59v20Zm-14.45-38.54a9.64,9.64,0,1,1,9.64,9.63A9.65,9.65,0,0,1,2380.23,1489.51Z" style="fill:#223460"/>
<path d="M2356.14,1528.05v-53.68c9.64-2.15,14.45-9.63,14.45-18.59a19.24,19.24,0,0,0-14.45-18.58v-24.78h-9.63v24.78a19.17,19.17,0,0,0,0,37.17v53.68Zm-14.45-72.27a9.64,9.64,0,1,1,9.63,9.64A9.64,9.64,0,0,1,2341.69,1455.78Z" style="fill:#223460"/>
<path d="M1839.05,1503l-39.8,10.62a10.2,10.2,0,0,0-4.58,17.07l12.09,12.09-26.09,26.08,5.75,5.75,26.08-26.08,12.09,12.09a10.12,10.12,0,0,0,7.17,3,10.44,10.44,0,0,0,2.7-.36,10.06,10.06,0,0,0,7.2-7.23l10.62-39.8a10.82,10.82,0,0,0-13.23-13.23Zm5.38,11.14-10.62,39.79h0a2,2,0,0,1-1.46,1.46,2,2,0,0,1-2-.54l-29.93-29.92a2.08,2.08,0,0,1,.93-3.47l39.8-10.61a2.71,2.71,0,0,1,.72-.1,2.7,2.7,0,0,1,2.56,3.38Zm70.15-62.67a11,11,0,0,0,2.83-.37l39.8-10.61a10.21,10.21,0,0,0,4.58-17.08l-12.09-12.09,26.09-26.08-5.74-5.75L1944,1405.54l-12.09-12.09a10.2,10.2,0,0,0-17.07,4.58l-10.62,39.8a10.83,10.83,0,0,0,10.4,13.6Zm-2.54-11.5,10.61-39.8h0a2,2,0,0,1,1.45-1.46,2.51,2.51,0,0,1,.57-.07,2,2,0,0,1,1.44.61l29.92,29.92a2.07,2.07,0,0,1-.93,3.47l-39.8,10.61a2.59,2.59,0,0,1-2.58-.69A2.65,2.65,0,0,1,1912,1439.93Zm49.76,90.72a10.2,10.2,0,0,0-4.59-17.07l-39.8-10.62a10.83,10.83,0,0,0-13.6,10.4,11.45,11.45,0,0,0,.37,2.83l10.62,39.8a10.2,10.2,0,0,0,17.07,4.58l12.09-12.09,26.09,26.09,5.74-5.75-26.08-26.08Zm-35.68,24.18a2,2,0,0,1-2,.53,2,2,0,0,1-1.46-1.46L1912,1514.1a2.6,2.6,0,0,1,.69-2.58,2.64,2.64,0,0,1,2.59-.7l39.79,10.61h0a2,2,0,0,1,1.46,1.46,2.24,2.24,0,0,1,.08.56,2,2,0,0,1-.61,1.44Zm-131.45-131.46a10.06,10.06,0,0,0-3,7.17,10.44,10.44,0,0,0,.36,2.7,10.06,10.06,0,0,0,7.22,7.2l39.8,10.62a10.81,10.81,0,0,0,13.22-13.23L1841.66,1398a10.2,10.2,0,0,0-17.07-4.59l-12.09,12.09-26.08-26.09-5.75,5.75,26.09,26.08Zm35.67-24.18a2.06,2.06,0,0,1,2-.53,2,2,0,0,1,1.46,1.46l10.61,39.8a2.71,2.71,0,0,1,.1.72,2.69,2.69,0,0,1-3.37,2.56l-39.8-10.61h0a2.06,2.06,0,0,1-.93-3.46Z" style="fill:#223460"/>
<circle cx="1878.23" cy="1477.01" r="16.26" style="fill:#223460;opacity:0.5"/>
<path d="M1799.88,1522.9a2.06,2.06,0,0,1,1.47-1.47l39.8-10.61a2.68,2.68,0,0,1,3.28,3.28l-10.62,39.79h0a2,2,0,0,1-1.46,1.46,2,2,0,0,1-2-.54l-29.93-29.92A2.05,2.05,0,0,1,1799.88,1522.9Z" style="fill:#223460;opacity:0.5"/>
<path d="M1956.58,1431.12a2,2,0,0,1-1.47,1.47l-39.79,10.61a2.57,2.57,0,0,1-2.58-.69,2.62,2.62,0,0,1-.7-2.58l10.61-39.8h0a2,2,0,0,1,1.45-1.46,2.51,2.51,0,0,1,.57-.07,2,2,0,0,1,1.44.61l29.92,29.92A2,2,0,0,1,1956.58,1431.12Z" style="fill:#223460;opacity:0.5"/>
<path d="M1832.35,1398.66a2,2,0,0,1,1.46,1.47l10.61,39.8a2.68,2.68,0,0,1-3.27,3.28l-39.8-10.62h0a2.07,2.07,0,0,1-.93-3.47l29.92-29.92A2,2,0,0,1,1832.35,1398.66Z" style="fill:#223460;opacity:0.5"/>
<path d="M1924.12,1555.36a2,2,0,0,1-1.46-1.47L1912,1514.1a2.59,2.59,0,0,1,.69-2.58,2.64,2.64,0,0,1,2.59-.7l39.79,10.61h0a2,2,0,0,1,1.46,1.46,2.4,2.4,0,0,1,.08.56,2,2,0,0,1-.61,1.45l-29.93,29.92A2,2,0,0,1,1924.12,1555.36Z" style="fill:#223460;opacity:0.5"/>
<path d="M1982.24,1367.25,1988,1373l-5.75,5.75-5.75-5.75Zm-208,219.52-5.74-5.75,5.74-5.75L1780,1581ZM1988,1581l-5.75,5.75-5.75-5.75,5.75-5.75Zm-219.51-208,5.74-5.75L1780,1373l-5.75,5.75Z" style="fill:#223460"/>
<rect x="2848.05" y="1407.91" width="56.91" height="8.13" style="fill:#223460;opacity:0.5"/>
<rect x="2848.05" y="1472.95" width="146.34" height="8.13" style="fill:#223460;opacity:0.5"/>
<rect x="2848.05" y="1537.99" width="101.63" height="8.13" style="fill:#223460;opacity:0.5"/>
<path d="M3043.18,1387.58h-187a12.21,12.21,0,0,0-12.19,12.2v24.39a12.21,12.21,0,0,0,12.19,12.19h187a12.21,12.21,0,0,0,12.19-12.19v-24.39A12.21,12.21,0,0,0,3043.18,1387.58Zm-191.06,36.59v-24.39a4.07,4.07,0,0,1,4.06-4.07h44.72v32.52h-44.72A4.06,4.06,0,0,1,2852.12,1424.17Zm195.12,0a4.06,4.06,0,0,1-4.06,4.06H2909v-32.52h134.15a4.07,4.07,0,0,1,4.06,4.07Z" style="fill:#223460"/>
<path d="M3043.18,1452.62h-187a12.21,12.21,0,0,0-12.19,12.2v24.39a12.21,12.21,0,0,0,12.19,12.19h187a12.21,12.21,0,0,0,12.19-12.19v-24.39A12.21,12.21,0,0,0,3043.18,1452.62Zm-191.06,36.59v-24.39a4.07,4.07,0,0,1,4.06-4.07h134.15v32.52H2856.18A4.06,4.06,0,0,1,2852.12,1489.21Zm195.12,0a4.06,4.06,0,0,1-4.06,4.06h-44.72v-32.52h44.72a4.07,4.07,0,0,1,4.06,4.07Z" style="fill:#223460"/>
<path d="M3043.18,1517.66h-187a12.21,12.21,0,0,0-12.19,12.2v24.39a12.21,12.21,0,0,0,12.19,12.19h187a12.21,12.21,0,0,0,12.19-12.19v-24.39A12.21,12.21,0,0,0,3043.18,1517.66Zm-191.06,36.59v-24.39a4.07,4.07,0,0,1,4.06-4.07h89.44v32.52h-89.44A4.06,4.06,0,0,1,2852.12,1554.25Zm195.12,0a4.06,4.06,0,0,1-4.06,4.06h-89.43v-32.52h89.43a4.07,4.07,0,0,1,4.06,4.07Z" style="fill:#223460"/>
<text transform="translate(600.05 622.53)" style="font-size:58px;fill:#314773;font-family:OpenSans-Semibold, Open Sans;font-weight:700">CRM</text>
<text transform="translate(600.05 2095.02)" style="font-size:58px;fill:#314773;font-family:OpenSans-Semibold, Open Sans;font-weight:700">Marketing<tspan x="0" y="80">Automation</tspan>
</text>
<text transform="translate(600.05 1102.19)" style="font-size:58px;fill:#314773;font-family:OpenSans-Semibold, Open Sans;font-weight:700">Buyer Intent <tspan x="0" y="80">Data</tspan>
</text>
<text transform="translate(600.05 1586.54)" style="font-size:58px;fill:#314773;font-family:OpenSans-Semibold, Open Sans;font-weight:700">Web <tspan x="0" y="80">Analytics</tspan>
</text>
<text transform="translate(3919.11 582.53)" style="font-size:58px;fill:#314773;font-family:OpenSans-Semibold, Open Sans;font-weight:700">Targeted <tspan x="82.53" y="80">Emails</tspan>
</text>
<text transform="translate(3886.11 2135.02)" style="font-size:58px;fill:#314773;font-family:OpenSans-Semibold, Open Sans;font-weight:700">Digital Ads</text>
<text transform="translate(3861.28 1142.19)" style="font-size:58px;fill:#314773;font-family:OpenSans-Semibold, Open Sans;font-weight:700">Sales Alerts</text>
<text transform="translate(3918.34 1586.54)" style="font-size:58px;fill:#314773;font-family:OpenSans-Semibold, Open Sans;font-weight:700">Company <tspan x="101.36" y="80">Alerts</tspan>
</text>
<text transform="translate(2226.1 1687.73)" style="font-size:63.125648498535156px;fill:#223460;font-family:OpenSans-Bold, Open Sans;font-weight:700">UNLOCK ITS <tspan x="86.2" y="65.26">VALUE</tspan>
</text>
<text transform="translate(2800.82 1687.73)" style="font-size:63.125648498535156px;fill:#223460;font-family:OpenSans-Bold, Open Sans;font-weight:700">ACTIVATE<tspan x="7.1" y="65.26">GROWTH</tspan>
</text>
<text transform="translate(1725.61 1687.73)" style="font-size:63.125648498535156px;fill:#223460;font-family:OpenSans-Bold, Open Sans;font-weight:700">CONNECT <tspan x="-30.28" y="65.26">YOUR DATA</tspan>
</text>
<path d="M1481.73,1963.3q18-8.16,35.85-15.52V764.19q-17.82-7.34-35.85-15.52Z" style="fill:#51b5c7"/>
<path d="M3297,749.13q-18,8.14-35.85,15.48V1947.36q17.82,7.32,35.85,15.48Z" style="fill:#56cfb2"/>
<path d="M220.63,506.58A51.67,51.67,0,0,1,258,490.51a52.24,52.24,0,0,1,45.52,27A62.94,62.94,0,0,1,329.28,512c35.13,0,63.61,28.72,63.61,64.16s-28.48,64.17-63.61,64.17a64,64,0,0,1-12.53-1.25,46.5,46.5,0,0,1-60.92,19.13,53,53,0,0,1-98.62-2.4,48.87,48.87,0,0,1-10.12,1c-27.19,0-49.24-22.27-49.24-49.75A49.82,49.82,0,0,1,122.47,564a57.3,57.3,0,0,1,98.16-57.46" style="fill:#0f9bd7"/>
<path d="M140.58,591.14c-.18.49.07.59.13.67a14.76,14.76,0,0,0,1.68,1,18,18,0,0,0,8.83,2.06c6.05,0,9.81-3.22,9.81-8.4v-.1c0-4.79-4.25-6.53-8.22-7.79l-.52-.17c-3-1-5.59-1.81-5.59-3.79v-.1c0-1.69,1.51-2.93,3.86-2.93a17.42,17.42,0,0,1,7.68,2s.59.38.81-.19l1.23-3.31a.57.57,0,0,0-.3-.68,17.19,17.19,0,0,0-8.67-2.33h-.6c-5.54,0-9.41,3.34-9.41,8.14v.1c0,5.05,4.27,6.69,8.26,7.83l.65.2c2.91.9,5.42,1.67,5.42,3.72v.1c0,1.87-1.64,3.27-4.26,3.27a14.32,14.32,0,0,1-7.8-2.24c-.42-.25-.67-.43-1-.63a.48.48,0,0,0-.79.27Z" style="fill:#fff"/>
<path d="M229.18,591.14c-.18.49.07.59.13.67a14.76,14.76,0,0,0,1.68,1,18,18,0,0,0,8.83,2.06c6.05,0,9.81-3.22,9.81-8.4v-.1c0-4.79-4.25-6.53-8.22-7.79l-.52-.17c-3-1-5.59-1.81-5.59-3.79v-.1c0-1.69,1.51-2.93,3.86-2.93a17.42,17.42,0,0,1,7.68,2s.59.38.81-.19l1.23-3.31a.57.57,0,0,0-.3-.68,17.16,17.16,0,0,0-8.67-2.33h-.6c-5.54,0-9.41,3.34-9.41,8.14v.1c0,5.05,4.27,6.69,8.26,7.83l.65.2c2.91.9,5.42,1.67,5.42,3.72v.1c0,1.87-1.63,3.27-4.26,3.27a14.32,14.32,0,0,1-7.8-2.24c-.42-.25-.68-.42-1-.63a.51.51,0,0,0-.79.27Z" style="fill:#fff"/>
<path d="M294.72,575.56a12.07,12.07,0,0,0-2.3-4.38,11,11,0,0,0-3.88-2.95,14,14,0,0,0-10.83,0,11.09,11.09,0,0,0-3.88,2.95,12.23,12.23,0,0,0-2.3,4.38,20.29,20.29,0,0,0,0,10.86,12.27,12.27,0,0,0,2.3,4.39,10.92,10.92,0,0,0,3.88,2.93,14.49,14.49,0,0,0,10.83,0,10.92,10.92,0,0,0,3.88-2.93,12,12,0,0,0,2.3-4.39,20,20,0,0,0,0-10.86M289.67,581a12.51,12.51,0,0,1-1.62,6.87,5.45,5.45,0,0,1-4.92,2.4,5.39,5.39,0,0,1-4.9-2.4,12.6,12.6,0,0,1-1.6-6.87,12.47,12.47,0,0,1,1.6-6.84,5.39,5.39,0,0,1,4.9-2.37,5.45,5.45,0,0,1,4.92,2.37,12.37,12.37,0,0,1,1.62,6.84" style="fill:#fff"/>
<path d="M336.21,589.48a.49.49,0,0,0-.65-.31,10.85,10.85,0,0,1-2.35.67,17,17,0,0,1-2.77.2,7.73,7.73,0,0,1-5.78-2.16c-1.39-1.44-2.17-3.77-2.17-6.91a10.71,10.71,0,0,1,1.94-6.65,6.61,6.61,0,0,1,5.61-2.47,17,17,0,0,1,5.34.76s.4.18.58-.34c.45-1.23.77-2.11,1.25-3.45a.47.47,0,0,0-.32-.6,20.45,20.45,0,0,0-3.37-.85,25.07,25.07,0,0,0-3.79-.25,13.79,13.79,0,0,0-5.63,1.08,11.84,11.84,0,0,0-4.07,2.94,12.49,12.49,0,0,0-2.45,4.39,17.37,17.37,0,0,0-.83,5.44c0,4.19,1.13,7.58,3.36,10.06s5.6,3.75,10,3.75a20.6,20.6,0,0,0,7.15-1.27.47.47,0,0,0,.21-.61Z" style="fill:#fff;fill-rule:evenodd"/>
<path d="M362.05,574.61a10.74,10.74,0,0,0-2.18-4,10,10,0,0,0-3.25-2.47,12.44,12.44,0,0,0-4.9-1,13.37,13.37,0,0,0-5.65,1.1,11.34,11.34,0,0,0-3.93,3,12.47,12.47,0,0,0-2.32,4.44,19.21,19.21,0,0,0-.75,5.46,18.19,18.19,0,0,0,.78,5.46,11.35,11.35,0,0,0,2.47,4.35,11.49,11.49,0,0,0,4.3,2.85,17.2,17.2,0,0,0,6.21,1c4.94,0,7.54-1.12,8.61-1.71.2-.11.37-.29.15-.82l-1.12-3.13a.5.5,0,0,0-.64-.3,16.35,16.35,0,0,1-7,1.27,8.09,8.09,0,0,1-5.85-2c-1.26-1.24-1.89-3.08-2-5.68h17.09a.49.49,0,0,0,.5-.44,18.24,18.24,0,0,0-.51-7.37m-17,3.58a10,10,0,0,1,1.39-4,5.44,5.44,0,0,1,4.89-2.48,5.31,5.31,0,0,1,4.79,2.48,8.53,8.53,0,0,1,1.13,4Z" style="fill:#fff;fill-rule:evenodd"/>
<path d="M225.09,574.61a10.74,10.74,0,0,0-2.18-4,9.76,9.76,0,0,0-3.25-2.47,12.47,12.47,0,0,0-4.9-1,13.4,13.4,0,0,0-5.65,1.1,11.34,11.34,0,0,0-3.93,3,12.47,12.47,0,0,0-2.32,4.44,19.21,19.21,0,0,0-.75,5.46,18.19,18.19,0,0,0,.78,5.46,10.92,10.92,0,0,0,6.78,7.2,17.19,17.19,0,0,0,6.2,1c4.94,0,7.55-1.12,8.62-1.71.19-.11.36-.29.14-.82l-1.12-3.13a.5.5,0,0,0-.64-.3,16.35,16.35,0,0,1-7,1.27,8.11,8.11,0,0,1-5.85-2c-1.26-1.24-1.89-3.08-2-5.68h17.1a.5.5,0,0,0,.5-.44,18.56,18.56,0,0,0-.52-7.37m-17,3.58a10,10,0,0,1,1.38-4,5.45,5.45,0,0,1,4.89-2.48,5.3,5.3,0,0,1,4.79,2.48,8.42,8.42,0,0,1,1.13,4Z" style="fill:#fff;fill-rule:evenodd"/>
<path d="M177.93,577.37c-.7,0-1.59-.08-2.67-.08a16.22,16.22,0,0,0-4.22.54,11,11,0,0,0-3.56,1.66,8.11,8.11,0,0,0-2.48,2.82,8.19,8.19,0,0,0-.92,3.94,8.78,8.78,0,0,0,.79,3.9,7.15,7.15,0,0,0,2.22,2.68,9.5,9.5,0,0,0,3.49,1.51,20.84,20.84,0,0,0,4.53.46,31.88,31.88,0,0,0,5.19-.43c1.68-.29,3.74-.71,4.31-.84s1.2-.3,1.2-.3a.55.55,0,0,0,.39-.56V577c0-3.43-.92-6-2.72-7.55s-4.44-2.37-7.85-2.37a29.12,29.12,0,0,0-4.59.42s-3.73.73-5.27,1.93a.54.54,0,0,0-.15.68l1.21,3.26a.43.43,0,0,0,.56.27,2,2,0,0,0,.28-.14,17.31,17.31,0,0,1,7.45-1.73,6.93,6.93,0,0,1,4.23,1.1c.93.72,1.41,1.8,1.41,4.08v.72c-1.47-.21-2.82-.33-2.82-.33m-6.81,12a3.2,3.2,0,0,1-1-1,4.07,4.07,0,0,1-.52-2.22,3.74,3.74,0,0,1,1.53-3.31s1.47-1.29,5-1.24a33.89,33.89,0,0,1,4.64.4v7.77a35.6,35.6,0,0,1-4.61.61c-3.48.21-5-1-5-1" style="fill:#fff"/>
<path d="M315.86,568.56a.47.47,0,0,0-.26-.62,16,16,0,0,0-2.87-.49,8.52,8.52,0,0,0-4.41.71,7.69,7.69,0,0,0-2.88,2.14v-2.09a.49.49,0,0,0-.49-.52h-4.38a.49.49,0,0,0-.49.52v25.51a.52.52,0,0,0,.52.52h4.49a.52.52,0,0,0,.52-.52V581a14.82,14.82,0,0,1,.57-4.49,6.37,6.37,0,0,1,1.49-2.52,5.35,5.35,0,0,1,2.12-1.27,8.33,8.33,0,0,1,2.29-.32,9.57,9.57,0,0,1,1.87.23c.34,0,.52-.17.63-.46.29-.78,1.13-3.13,1.29-3.59" style="fill:#fff;fill-rule:evenodd"/>
<path d="M273.69,556.74a12.5,12.5,0,0,0-1.7-.4,12.22,12.22,0,0,0-2.32-.19,9.77,9.77,0,0,0-7.24,2.61c-1.7,1.71-2.86,4.32-3.44,7.75l-.21,1.16H254.9a.57.57,0,0,0-.57.5l-.64,3.55c-.05.34.1.55.56.55H258l-3.84,21.41a27.12,27.12,0,0,1-1,4.21,8.69,8.69,0,0,1-1.2,2.43,3.14,3.14,0,0,1-1.56,1.21,6.3,6.3,0,0,1-2,.29,7.76,7.76,0,0,1-1.37-.15,4.07,4.07,0,0,1-.93-.3.47.47,0,0,0-.62.28c-.14.36-1.14,3.13-1.26,3.47a.49.49,0,0,0,.26.68,12.52,12.52,0,0,0,1.56.46,10.64,10.64,0,0,0,2.51.24,12.52,12.52,0,0,0,4.2-.65,8.05,8.05,0,0,0,3.16-2.21,11.44,11.44,0,0,0,2.22-3.82,33.65,33.65,0,0,0,1.5-5.75l3.85-21.8h5.63a.58.58,0,0,0,.58-.5l.63-3.55c.05-.34-.1-.55-.55-.55H264.3a23.19,23.19,0,0,1,.9-3.86,5.11,5.11,0,0,1,1.2-1.82,3.72,3.72,0,0,1,1.44-.9,6.08,6.08,0,0,1,1.83-.26,7,7,0,0,1,1.4.14c.53.11.74.18.88.21.56.18.63,0,.74-.26l1.31-3.59a.45.45,0,0,0-.31-.59" style="fill:#fff;fill-rule:evenodd"/>
<path d="M197.29,593.72a.5.5,0,0,1-.49.52h-4.54a.49.49,0,0,1-.49-.52v-36.5a.49.49,0,0,1,.49-.51h4.54a.5.5,0,0,1,.49.51Z" style="fill:#fff;fill-rule:evenodd"/>
<path d="M316,2074.09H300.07a9.58,9.58,0,0,0-8.7,6.79l-20.58,87.41a189.83,189.83,0,0,1,27.58,10.61l23.13-98.23a5.36,5.36,0,0,0-3.61-6.58Zm-43.28,27.37H256.79a9.56,9.56,0,0,0-8.7,6.79l-12.3,52.19a276.79,276.79,0,0,1,28.64,6.16L278,2108.25a5.36,5.36,0,0,0-3.61-6.58c-.42,0-1.06-.21-1.7-.21Zm-81,33.95H175.74a9.56,9.56,0,0,0-8.7,6.79l-3.39,14.43c2.54-.22,5.09-.22,7.64-.43,7.85,0,15.27,0,22.27.21L197,2142a5.36,5.36,0,0,0-3.61-6.58Zm41.59-18.25H217.33a9.56,9.56,0,0,0-8.7,6.79L201,2156.84c10.61.63,20.37,1.48,29.28,2.76l8.49-35.65a5.37,5.37,0,0,0-3.61-6.58A6.61,6.61,0,0,0,233.24,2117.16Z" style="fill:#716fb3"/>
<path d="M249.38,2015.86a108.81,108.81,0,1,1-76.93,31.87,108.09,108.09,0,0,1,76.93-31.87m0-16.95a125.75,125.75,0,1,0,125.75,125.75,125.75,125.75,0,0,0-125.75-125.75Z" style="fill:#716fb3"/>
<path d="M365.5,1712V1510.46a18.81,18.81,0,0,0-18.81-18.81h-44a18.81,18.81,0,0,0-18.81,18.81v57.71H220.6A18.81,18.81,0,0,0,201.79,1587v62.31H144.06a18.81,18.81,0,0,0-18.81,18.8V1712a18.81,18.81,0,0,0,18.81,18.81H346.69A18.82,18.82,0,0,0,365.5,1712Z" style="fill:#ffc300"/>
<path d="M283.92,1510.46a18.81,18.81,0,0,1,18.81-18.81h44a18.81,18.81,0,0,1,18.81,18.81V1712a18.82,18.82,0,0,1-18.81,18.81l-62.6-.17Z" style="fill:#ff7600"/>
<path d="M365.5,1652.81V1712a18.82,18.82,0,0,1-18.81,18.81l-62.6-.17L284,1568.83Z" style="fill:#ff6c00"/>
<path d="M283.39,1065l24.34-29.75c8.86-10.55,13.89-14.78,13.89-23.42,0-7.25-5.82-12.74-13.35-12.74-6.33,0-13.94,3-16.11,11.59l-10.25-1.84c3.85-15.37,15.89-19.8,27.51-19.8,13.58,0,22.44,12.12,22.44,21.87s-3.14,17.53-14.87,29.26L302.11,1058l-.1,1.68h29.85v10H283Z" style="fill:#2e6376"/>
<path d="M371.59,1084.17l-88.5,0v38.49H330c-.17.52-.29,1.07-.47,1.59a71.82,71.82,0,1,1-69.17-94.66V989.91a111.43,111.43,0,1,0,112.54,111.42A112.79,112.79,0,0,0,371.59,1084.17Z" style="fill:#2e6376"/>
<path d="M4475.27,1022A51.77,51.77,0,0,1,4558.2,1033a63,63,0,0,1,25.73-5.47c35.13,0,63.61,28.73,63.61,64.16s-28.48,64.17-63.61,64.17a63.09,63.09,0,0,1-12.53-1.25,46.47,46.47,0,0,1-60.92,19.13,53.05,53.05,0,0,1-98.62-2.39,49.56,49.56,0,0,1-10.12,1c-27.2,0-49.24-22.28-49.24-49.75a49.85,49.85,0,0,1,24.62-43.11,57.3,57.3,0,0,1,98.15-57.46" style="fill:#0f9bd7"/>
<path d="M4395.23,1106.61c-.19.48.06.58.13.67a18.35,18.35,0,0,0,1.68,1,18,18,0,0,0,8.82,2.06c6.06,0,9.81-3.22,9.81-8.4v-.1c0-4.8-4.24-6.54-8.22-7.8l-.52-.16c-3-1-5.59-1.82-5.59-3.79v-.1c0-1.7,1.52-2.94,3.86-2.94a17.44,17.44,0,0,1,7.69,2s.59.38.8-.19c.12-.31,1.13-3,1.23-3.32a.56.56,0,0,0-.29-.68,17.21,17.21,0,0,0-8.67-2.32h-.61c-5.54,0-9.41,3.35-9.41,8.14v.1c0,5,4.27,6.7,8.27,7.84l.64.2c2.92.89,5.43,1.66,5.43,3.71v.1c0,1.88-1.64,3.27-4.27,3.27a14.2,14.2,0,0,1-7.79-2.24c-.43-.25-.67-.43-1-.63a.49.49,0,0,0-.8.28Z" style="fill:#fff"/>
<path d="M4483.83,1106.61c-.19.48.06.58.13.67a18.35,18.35,0,0,0,1.68,1,18,18,0,0,0,8.82,2.06c6.06,0,9.81-3.22,9.81-8.4v-.1c0-4.8-4.24-6.54-8.22-7.8l-.52-.16c-3-1-5.59-1.82-5.59-3.79v-.1c0-1.7,1.52-2.94,3.86-2.94a17.44,17.44,0,0,1,7.69,2s.59.38.8-.19c.12-.31,1.13-3,1.23-3.32a.56.56,0,0,0-.29-.68,17.21,17.21,0,0,0-8.67-2.32H4494c-5.54,0-9.41,3.35-9.41,8.14v.1c0,5,4.28,6.7,8.27,7.84l.64.2c2.92.89,5.43,1.66,5.43,3.71v.1c0,1.88-1.63,3.27-4.27,3.27a14.22,14.22,0,0,1-7.79-2.24c-.43-.25-.68-.42-1-.63a.51.51,0,0,0-.79.28Z" style="fill:#fff"/>
<path d="M4549.37,1091a12.19,12.19,0,0,0-2.3-4.39,11,11,0,0,0-3.88-3,14,14,0,0,0-10.83,0,11,11,0,0,0-3.88,3,12.12,12.12,0,0,0-2.3,4.39,20,20,0,0,0,0,10.86,12.07,12.07,0,0,0,2.3,4.38,10.81,10.81,0,0,0,3.88,2.93,14.36,14.36,0,0,0,10.83,0,10.81,10.81,0,0,0,3.88-2.93,12.23,12.23,0,0,0,2.3-4.38,20.29,20.29,0,0,0,0-10.86m-5.06,5.43a12.44,12.44,0,0,1-1.62,6.87,6.21,6.21,0,0,1-9.81,0,15.51,15.51,0,0,1,0-13.72,6.26,6.26,0,0,1,9.81,0,12.32,12.32,0,0,1,1.62,6.85" style="fill:#fff"/>
<path d="M4590.85,1104.94a.47.47,0,0,0-.64-.3,11.81,11.81,0,0,1-2.35.67,18.3,18.3,0,0,1-2.77.2,7.7,7.7,0,0,1-5.78-2.17c-1.39-1.44-2.18-3.76-2.17-6.91a10.75,10.75,0,0,1,1.94-6.65,6.6,6.6,0,0,1,5.61-2.46,16.9,16.9,0,0,1,5.33.76s.4.17.59-.35c.45-1.23.77-2.1,1.24-3.45a.44.44,0,0,0-.31-.59,19.63,19.63,0,0,0-3.37-.86,26.44,26.44,0,0,0-3.79-.25,13.79,13.79,0,0,0-5.63,1.08,11.64,11.64,0,0,0-4.07,2.95,12.34,12.34,0,0,0-2.46,4.39,17.37,17.37,0,0,0-.82,5.44c0,4.19,1.13,7.57,3.36,10s5.59,3.76,10,3.76a20.65,20.65,0,0,0,7.16-1.28.46.46,0,0,0,.2-.6Z" style="fill:#fff;fill-rule:evenodd"/>
<path d="M4616.7,1090.08a10.52,10.52,0,0,0-2.19-4,9.94,9.94,0,0,0-3.25-2.48,12.4,12.4,0,0,0-4.9-1,13.48,13.48,0,0,0-5.64,1.09,11.19,11.19,0,0,0-3.94,3,12.28,12.28,0,0,0-2.31,4.44,19.14,19.14,0,0,0-.75,5.45,18.42,18.42,0,0,0,.77,5.46,11,11,0,0,0,6.78,7.2,17.2,17.2,0,0,0,6.21,1c4.94,0,7.54-1.11,8.61-1.71.19-.1.37-.29.15-.81l-1.13-3.14a.49.49,0,0,0-.64-.29,16.53,16.53,0,0,1-7,1.26,8.06,8.06,0,0,1-5.85-2c-1.26-1.25-1.88-3.09-2-5.69l17.1,0a.51.51,0,0,0,.5-.45,18.4,18.4,0,0,0-.51-7.36m-17,3.57a9.92,9.92,0,0,1,1.38-4,5.47,5.47,0,0,1,4.89-2.49,5.3,5.3,0,0,1,4.79,2.49,8.39,8.39,0,0,1,1.14,4Z" style="fill:#fff;fill-rule:evenodd"/>
<path d="M4479.74,1090.08a10.52,10.52,0,0,0-2.19-4,9.92,9.92,0,0,0-3.24-2.48,12.47,12.47,0,0,0-4.9-1,13.5,13.5,0,0,0-5.65,1.09,11.28,11.28,0,0,0-3.94,3,12.44,12.44,0,0,0-2.31,4.44,19.14,19.14,0,0,0-.75,5.45,18.42,18.42,0,0,0,.77,5.46,11.37,11.37,0,0,0,2.48,4.35,11.25,11.25,0,0,0,4.3,2.85,17.2,17.2,0,0,0,6.21,1c4.94,0,7.54-1.11,8.61-1.71.19-.1.37-.29.15-.81l-1.12-3.14a.49.49,0,0,0-.64-.29,16.63,16.63,0,0,1-7,1.26,8.05,8.05,0,0,1-5.84-2c-1.27-1.25-1.89-3.09-2-5.69l17.1,0a.51.51,0,0,0,.5-.45,18.19,18.19,0,0,0-.51-7.36m-17,3.57a10.07,10.07,0,0,1,1.38-4,5.48,5.48,0,0,1,4.89-2.49,5.32,5.32,0,0,1,4.8,2.49,8.5,8.5,0,0,1,1.13,4Z" style="fill:#fff;fill-rule:evenodd"/>
<path d="M4432.57,1092.83c-.69,0-1.59-.07-2.66-.07a16.16,16.16,0,0,0-4.22.54,11,11,0,0,0-3.57,1.65,8,8,0,0,0-3.39,6.76,9,9,0,0,0,.78,3.91,7,7,0,0,0,2.23,2.67,9.36,9.36,0,0,0,3.48,1.51,20.36,20.36,0,0,0,4.53.46,30.93,30.93,0,0,0,5.2-.43c1.68-.28,3.73-.7,4.3-.84s1.2-.3,1.2-.3a.53.53,0,0,0,.39-.56V1092.5c0-3.44-.91-6-2.71-7.56s-4.44-2.36-7.86-2.36a28,28,0,0,0-4.58.42s-3.74.72-5.27,1.93a.54.54,0,0,0-.16.68l1.21,3.25a.45.45,0,0,0,.57.28,2,2,0,0,0,.28-.14,17.39,17.39,0,0,1,7.45-1.74,6.93,6.93,0,0,1,4.23,1.11c.93.72,1.4,1.79,1.4,4.07v.73c-1.46-.22-2.82-.34-2.82-.34m-6.8,12a3.39,3.39,0,0,1-1-1,4.07,4.07,0,0,1-.51-2.22,3.75,3.75,0,0,1,1.53-3.31s1.47-1.28,5-1.23a34.88,34.88,0,0,1,4.64.39v7.78a35.6,35.6,0,0,1-4.62.61c-3.48.21-5-1-5-1" style="fill:#fff"/>
<path d="M4570.5,1084a.46.46,0,0,0-.25-.61,15.12,15.12,0,0,0-2.87-.49,8.52,8.52,0,0,0-4.41.71,7.6,7.6,0,0,0-2.89,2.13v-2.09a.49.49,0,0,0-.49-.51h-4.39a.5.5,0,0,0-.49.51v25.51a.52.52,0,0,0,.53.52h4.49a.51.51,0,0,0,.51-.52v-12.74a14.87,14.87,0,0,1,.57-4.49,6.27,6.27,0,0,1,1.5-2.51,5.13,5.13,0,0,1,2.11-1.27,8.1,8.1,0,0,1,2.29-.33,9.22,9.22,0,0,1,1.88.24.59.59,0,0,0,.63-.47c.29-.78,1.13-3.12,1.28-3.59" style="fill:#fff;fill-rule:evenodd"/>
<path d="M4528.33,1072.2a14,14,0,0,0-1.69-.4,13.17,13.17,0,0,0-2.32-.18,9.79,9.79,0,0,0-7.25,2.6c-1.7,1.71-2.85,4.32-3.43,7.75l-.21,1.16h-3.88a.58.58,0,0,0-.58.5l-.63,3.56c-.05.33.1.55.55.55h3.78l-3.83,21.4a26.71,26.71,0,0,1-1,4.21,8.52,8.52,0,0,1-1.19,2.44,3.22,3.22,0,0,1-1.57,1.21,6.6,6.6,0,0,1-2,.28,8,8,0,0,1-1.37-.15,4.35,4.35,0,0,1-.92-.29.47.47,0,0,0-.62.27c-.14.36-1.15,3.13-1.27,3.48a.51.51,0,0,0,.27.68,12.16,12.16,0,0,0,1.56.45,10,10,0,0,0,2.5.24,12.48,12.48,0,0,0,4.2-.65,7.89,7.89,0,0,0,3.16-2.2,11.32,11.32,0,0,0,2.22-3.83,32.45,32.45,0,0,0,1.51-5.75l3.85-21.79h5.63a.58.58,0,0,0,.57-.5l.64-3.56c0-.34-.1-.55-.55-.55H4519a21.89,21.89,0,0,1,.9-3.85,4.94,4.94,0,0,1,1.2-1.83,3.55,3.55,0,0,1,1.43-.89,5.84,5.84,0,0,1,1.84-.26,7.2,7.2,0,0,1,1.4.14c.53.11.74.17.88.21.55.17.63,0,.74-.26l1.3-3.59a.45.45,0,0,0-.31-.6" style="fill:#fff;fill-rule:evenodd"/>
<path d="M4451.93,1109.18a.49.49,0,0,1-.49.52h-4.53a.49.49,0,0,1-.49-.52v-36.49a.49.49,0,0,1,.49-.52h4.53a.49.49,0,0,1,.49.52Z" style="fill:#fff;fill-rule:evenodd"/>
<path d="M4566.62,504.81h-15.91a9.56,9.56,0,0,0-8.7,6.79L4521.43,599A188.68,188.68,0,0,1,4549,609.62l23.13-98.24a5.36,5.36,0,0,0-3.61-6.57Zm-43.28,27.37h-15.91a9.56,9.56,0,0,0-8.7,6.79l-12.31,52.19a276.35,276.35,0,0,1,28.65,6.15L4528.64,539a5.36,5.36,0,0,0-3.6-6.58c-.43,0-1.06-.21-1.7-.21Zm-81.05,33.94h-15.91a9.58,9.58,0,0,0-8.7,6.79l-3.39,14.43c2.54-.21,5.09-.21,7.64-.42,7.85,0,15.27,0,22.27.21l3.4-14.43a5.36,5.36,0,0,0-3.61-6.58Zm41.59-18.24H4468a9.55,9.55,0,0,0-8.7,6.79l-7.64,32.88c10.61.64,20.37,1.49,29.28,2.76l8.48-35.64a5.36,5.36,0,0,0-3.6-6.58A6.64,6.64,0,0,0,4483.88,547.88Z" style="fill:#716fb3"/>
<path d="M4500,446.57a108.81,108.81,0,1,1-76.93,31.87A108.09,108.09,0,0,1,4500,446.57m0-16.94a125.75,125.75,0,1,0,125.75,125.74A125.75,125.75,0,0,0,4500,429.63Z" style="fill:#716fb3"/>
<path d="M4497.25,1676.78l-36.81,11.93,6.75,20.81a19.34,19.34,0,1,0,36.8-11.92l-6.74-20.82m-26-80.26-36.8,11.92,14.07,43.46,36.81-11.93-14.08-43.45m-37-70.72a19.37,19.37,0,0,0-18.41,25.31l6.64,20.52,36.81-11.92-6.64-20.52a19.36,19.36,0,0,0-18.4-13.39" style="fill:#00b584"/>
<path d="M4577.52,1650.78l-36.82,11.93,6.65,20.52a19.35,19.35,0,0,0,36.81-11.92l-6.64-20.53m-26-80.26-36.81,11.92,14.07,43.46L4565.6,1614l-14.08-43.46m-37.06-71a19.35,19.35,0,0,0-18.42,25.31l6.75,20.82,36.81-11.93-6.75-20.82a19.33,19.33,0,0,0-18.39-13.38" style="fill:#eaa100"/>
<path d="M4422.52,1571.63l-20.82,6.75a19.35,19.35,0,0,0,6,37.75,19.14,19.14,0,0,0,6-1l20.82-6.74-11.93-36.81m80.27-26-43.46,14.07,11.92,36.81,43.46-14.08-11.92-36.8m63.29-19.52a19.37,19.37,0,0,0-6,1l-20.52,6.64,11.92,36.81,20.52-6.64a19.35,19.35,0,0,0-6-37.76" style="fill:#4ec7cf"/>
<polyline points="4459.33 1559.71 4422.52 1571.63 4434.45 1608.44 4471.25 1596.52 4459.33 1559.71" style="fill:#008d6b"/>
<polyline points="4539.6 1533.71 4502.78 1545.64 4514.71 1582.44 4551.52 1570.52 4539.6 1533.71" style="fill:#57822d"/>
<path d="M4448.52,1651.9l-20.52,6.64a19.35,19.35,0,1,0,11.93,36.81l20.51-6.64-11.92-36.81m80.26-26L4485.33,1640l11.92,36.81,43.45-14.07-11.92-36.81m63.6-19.61a19.39,19.39,0,0,0-6,1L4565.6,1614l11.92,36.8,20.81-6.74a19.34,19.34,0,0,0-5.95-37.75" style="fill:#e3005a"/>
<polyline points="4485.33 1639.97 4448.52 1651.9 4460.44 1688.7 4497.25 1676.78 4485.33 1639.97" style="fill:#3d2339"/>
<polyline points="4565.6 1613.98 4528.78 1625.9 4540.7 1662.71 4577.52 1650.78 4565.6 1613.98" style="fill:#cd0020"/>
<rect x="4366.17" y="2044.72" width="159.54" height="159.54" rx="8.81" ry="8.81" style="fill:#3d5a98"/>
<path d="M4476.25,2204.26v-61.78H4497l3.1-24.08h-23.84V2103c0-7,1.94-11.73,11.93-11.73h12.75v-21.54a171.13,171.13,0,0,0-18.58-1c-18.38,0-31,11.23-31,31.83v17.76h-20.79v24.08h20.79v61.78Z" style="fill:#fff"/>
<path d="M4743.07,2044.72H4606.82a11.67,11.67,0,0,0-11.8,11.52v136.82a11.68,11.68,0,0,0,11.8,11.54h136.25a11.7,11.7,0,0,0,11.83-11.54V2056.24A11.69,11.69,0,0,0,4743.07,2044.72Z" style="fill:#007bb5"/>
<path d="M4618.72,2104.66h23.72V2181h-23.72Zm11.87-37.93a13.75,13.75,0,1,1-13.76,13.74,13.75,13.75,0,0,1,13.76-13.74" style="fill:#fff"/>
<path d="M4657.31,2104.66h22.75v10.42h.31c3.17-6,10.9-12.32,22.44-12.32,24,0,28.45,15.8,28.45,36.35V2181h-23.7v-37.11c0-8.85-.16-20.23-12.32-20.23-12.34,0-14.23,9.64-14.23,19.59V2181h-23.7Z" style="fill:#fff"/>
</g>
</svg>