<?xml version="1.0" encoding="utf-8"?>
<!-- Generator: Adobe Illustrator 22.0.1, SVG Export Plug-In . SVG Version: 6.00 Build 0)  -->
<svg version="1.1" id="Layer_1" xmlns="http://www.w3.org/2000/svg" xmlns:xlink="http://www.w3.org/1999/xlink" x="0px" y="0px"
	 viewBox="0 0 487.9 124.2" style="enable-background:new 0 0 487.9 124.2;" xml:space="preserve">
<style type="text/css">
	.st0{fill:url(#SVGID_1_);}
	.st1{fill:#59DDA8;}
	.st2{fill:url(#SVGID_2_);}
	.st3{fill:#223460;}
</style>
<title>Artboard 12</title>
<linearGradient id="SVGID_1_" gradientUnits="userSpaceOnUse" x1="64.6696" y1="44.4102" x2="98.8096" y2="109.5702" gradientTransform="matrix(1 0 0 -1 0 126)">
	<stop  offset="0" style="stop-color:#4E90E5"/>
	<stop  offset="1" style="stop-color:#59DDA8"/>
</linearGradient>
<path class="st0" d="M96.6,13.1c-0.7,0-1.4,0.1-2.1,0.3l-24.6,8.1l-4.2,19.7L60,68.4l15.5,13.9l3.9,3.5c1.2,1.1,2.8,1.7,4.4,1.7
	c3.1,0,5.9-2.2,6.5-5.3L103,21.1c0.7-3.6-1.5-7.1-5.1-7.8C97.5,13.2,97,13.1,96.6,13.1z"/>
<path class="st1" d="M74.6,38.4l-8.8,2.9L60,68.4l-0.9,4.1c-0.6,2.9-3.5,4.8-6.4,4.1c-0.9-0.2-1.8-0.6-2.5-1.2L26.6,54.2l-11.3,3.7
	c-3.5,1.2-5.3,4.9-4.2,8.4c0.4,1.1,1,2.1,1.9,2.8l46.6,41.6c2.7,2.4,6.9,2.2,9.3-0.5c0.8-0.9,1.3-1.9,1.5-3l5.1-24.8L83.1,46
	c0.7-3.6-1.5-7.1-5.1-7.8C76.9,38,75.7,38,74.6,38.4"/>
<linearGradient id="SVGID_2_" gradientUnits="userSpaceOnUse" x1="-1013.4397" y1="2528.9048" x2="-1012.4397" y2="2528.9048" gradientTransform="matrix(48.76 -59.54 59.54 48.76 -101108.5234 -183559.125)">
	<stop  offset="0" style="stop-color:#1B7D97"/>
	<stop  offset="1" style="stop-color:#288F66"/>
</linearGradient>
<path class="st2" d="M76.7,38L76.7,38c-0.7,0-1.4,0.1-2.1,0.3l-8.9,3L60,68.4l15.5,13.9L83.1,46c0.1-0.5,0.1-0.9,0.2-1.4
	C83.2,41,80.3,38,76.7,38"/>
<path class="st3" d="M13,38.5l37.7,33.8c1.8,1.7,4.6,1.5,6.2-0.3c0.5-0.6,0.9-1.3,1.1-2.1l11-52.1c0.6-2.7-1.1-5.4-3.8-5.9
	c-0.9-0.2-1.8-0.1-2.6,0.1L12.2,28.5c-2.3,0.8-3.6,3.3-2.8,5.6c0.1,0.4,0.3,0.8,0.6,1.2c0.1,0.2,0.2,0.3,0.4,0.5
	C11.4,37,12.5,38,13,38.5z"/>
<path class="st3" d="M150.6,43.3v8.1c-3.4-1.9-7.3-3-11.3-2.9c-3.9-0.1-7.6,1.4-10.3,4.1c-2.8,2.8-4.1,6.4-4.1,11.1s1.4,8.3,4.1,11
	c2.9,2.8,6.8,4.3,10.8,4.1c3.9,0.1,7.7-1,10.9-3.3v8.3c-2.8,1.8-6.7,2.6-11.7,2.6c-6.7,0-12.3-2.1-16.6-6.2
	c-4.4-4.2-6.6-9.7-6.6-16.5c0-6.7,2.2-12.2,6.5-16.5c4.3-4.3,9.9-6.4,16.7-6.4C143.9,40.8,147.8,41.6,150.6,43.3z"/>
<path class="st3" d="M160.8,61.5v-7.3c2.6-1.5,6.2-2.3,11-2.3c9.2,0,13.8,4.2,13.8,12.7V86h-8v-4c-1.6,2.9-4.5,4.3-8.9,4.3
	c-2.8,0.1-5.6-0.9-7.7-2.8c-1.9-1.8-2.9-4.4-2.9-7c-0.1-3,1.2-5.8,3.6-7.5c2.4-1.8,5.9-2.7,10.5-2.7h5v-2c0.1-1.6-0.4-3.1-1.5-4.3
	c-1-1-2.6-1.5-5-1.5C167.2,58.5,163.7,59.5,160.8,61.5z M177.3,71.5h-4.2c-1.7-0.1-3.4,0.3-4.8,1.3c-1.1,0.8-1.7,2-1.7,3.3
	c0,2.8,1.7,4.2,5,4.2c2.9,0.2,5.5-1.9,5.7-4.8c0-0.3,0-0.5,0-0.8L177.3,71.5z"/>
<path class="st3" d="M195,86V39.2h8.1V86H195z"/>
<path class="st3" d="M212.1,42.4c0-1.3,0.5-2.5,1.4-3.4c1.9-1.9,4.9-1.9,6.9,0c0.9,0.9,1.4,2.1,1.4,3.4c0,1.3-0.5,2.5-1.4,3.4
	c-1.9,1.8-4.9,1.8-6.9,0C212.6,45,212.1,43.7,212.1,42.4z M212.9,86V52.5h8.1V86H212.9z"/>
<path class="st3" d="M238.8,39.2v18.3c2.1-3.6,6-5.7,10.2-5.5c4-0.1,7.9,1.6,10.5,4.7c2.8,3.1,4.1,7.3,4.1,12.6
	c0.1,4.4-1.3,8.7-3.9,12.2c-2.5,3.3-6.5,5.2-10.6,5c-4.2,0.2-8.1-2-10.3-5.6V86h-8.1V39.2H238.8z M247.3,79.6c2.3,0,4.5-1,5.9-2.8
	c1.6-2.1,2.5-4.7,2.4-7.4c0-3.3-0.8-5.9-2.4-7.8c-1.4-1.8-3.6-2.8-5.9-2.8c-2.2,0-4.3,0.9-5.9,2.5c-1.7,1.7-2.6,4.2-2.6,7.6
	s0.8,6.1,2.4,8C242.8,78.7,245,79.7,247.3,79.6L247.3,79.6z"/>
<path class="st3" d="M296.6,77.2v6.9c-2.4,1.4-5.8,2.2-10.3,2.2c-5.4,0-9.7-1.6-12.8-4.8c-3.2-3.3-4.9-7.7-4.7-12.3
	c0-5.3,1.5-9.5,4.4-12.6c2.9-3,6.9-4.7,11.1-4.6c4.4,0,7.9,1.3,10.5,4c2.6,2.7,3.9,6.5,3.9,11.6c0,1.6-0.2,3.2-0.5,4.8h-21.3
	c0.5,2.2,1.8,4.2,3.6,5.6c2.1,1.3,4.5,2,7,1.9C290.8,80,293.9,79.1,296.6,77.2z M291.1,66.5v-1c0-1.9-0.6-3.7-1.8-5.2
	c-1.2-1.4-3-2.1-4.8-2c-1.9,0-3.7,0.7-5,2.1c-1.5,1.7-2.5,3.8-2.7,6L291.1,66.5z"/>
<path class="st3" d="M315,52.5v6c1.6-4.1,4.4-6.2,8.6-6.2c0.8,0,1.5,0.1,2.3,0.2v7.7c-1.1-0.5-2.3-0.7-3.4-0.7
	c-2.1-0.1-4.1,0.9-5.4,2.6c-1.4,1.9-2.2,4.3-2.1,6.7V86h-8.1l0.1-33.5L315,52.5z"/>
<path class="st3" d="M330.6,86l3.6-44.5h9.7l6.2,16.2c1.1,2.7,2.1,5.5,3,8.2c0.9,2.7,1.6,4.7,2,6l0.6,2c1.4-4.5,3.3-9.9,5.8-16.2
	l6.3-16.2h9.7l4.4,44.6h-8.5l-1.6-17.4L370.6,53c-1.6,4.5-3.5,9.7-5.8,15.6l-6.3,16.7h-5.8l-6.2-16.7l-5.3-15.4
	c0,2.2-0.3,7.3-0.9,15.4L339.1,86H330.6z"/>
<path class="st3" d="M390.2,42.4c0-1.3,0.5-2.5,1.4-3.4c1.9-1.9,4.9-1.9,6.9,0c0.9,0.9,1.4,2.1,1.4,3.4c0,1.3-0.5,2.5-1.4,3.4
	c-1.9,1.8-4.9,1.8-6.9,0C390.7,45,390.2,43.7,390.2,42.4z M391,86V52.5h8.1V86H391z"/>
<path class="st3" d="M416.8,52.5v5.8c1.9-4.1,5.4-6.1,10.5-6.1c3-0.2,5.9,0.9,8.1,3c2,2,3,4.9,3,8.6V86h-8.1V65.3
	c0.1-1.8-0.4-3.6-1.6-5c-1.2-1.2-2.7-1.8-4.4-1.7c-2,0-4,0.9-5.3,2.4c-1.4,1.6-2.1,3.9-2.1,6.9v18h-8.1V52.5H416.8z"/>
<path class="st3" d="M470.8,39.2h8V86h-8v-5.2c-2.1,3.7-6.1,5.9-10.4,5.7c-4.1,0.2-8.1-1.7-10.6-5c-2.7-3.5-4.1-7.8-3.9-12.2
	c0-5.3,1.4-9.5,4.1-12.6c2.6-3.1,6.5-4.8,10.6-4.7c4.2-0.1,8.1,2,10.2,5.6V39.2z M462.3,79.6c2.3,0,4.5-1,6-2.7
	c1.6-1.8,2.4-4.5,2.4-8c0-3.4-0.9-5.9-2.6-7.6c-1.5-1.6-3.6-2.5-5.8-2.5c-2.3,0-4.5,1-5.9,2.8c-1.6,1.9-2.4,4.5-2.4,7.8
	c-0.1,2.7,0.7,5.3,2.4,7.4C457.8,78.6,460,79.6,462.3,79.6z"/>
</svg>
