<?xml version="1.0" encoding="utf-8"?>
<!-- Generator: Adobe Illustrator 22.1.0, SVG Export Plug-In . SVG Version: 6.00 Build 0)  -->
<svg version="1.1" id="Layer_1" xmlns="http://www.w3.org/2000/svg" xmlns:xlink="http://www.w3.org/1999/xlink" x="0px" y="0px"
	 viewBox="0 0 1200 1200" style="enable-background:new 0 0 1200 1200;" xml:space="preserve">
<style type="text/css">
	.st0{fill:#67449E;}
	.st1{fill:#EAA23B;}
	.st2{fill:#2868B5;}
	.st3{fill:#C177E0;}
	.st4{fill:#B26599;}
	.st5{fill:#AE4DCE;}
	.st6{fill:#FFDA65;}
	.st7{fill:#FFC639;}
	.st8{fill:#D2CF6E;}
	.st9{fill:#6ECDF4;}
	.st10{fill:#14A6E0;}
	.st11{fill:#659AD2;}
</style>
<g>
	<g>
		<g>
			<path class="st0" d="M600,23c235.1,0,425.7,190.6,425.7,425.7S835.1,874.5,600,874.5c-235.1,0-425.7-190.6-425.7-425.7
				S364.9,23,600,23 M600,10c-241.9,0-438.7,196.8-438.7,438.7S358.1,887.5,600,887.5s438.7-196.8,438.7-438.7S841.9,10,600,10
				L600,10z"/>
			<g>
				<path class="st1" d="M330.2,220.4l166.2,287.9l166.2-287.9c16.8-29.2-4.2-65.6-37.9-65.6H368.1
					C334.4,154.8,313.4,191.3,330.2,220.4"/>
				<path class="st2" d="M537.4,796.2l166.2-287.9H371.2c-33.7,0-54.7,36.5-37.9,65.6l128.3,222.2
					C478.5,825.4,520.6,825.4,537.4,796.2"/>
				<path class="st0" d="M932.4,328.9H600l166.2,287.9c16.8,29.2,58.9,29.2,75.8,0l128.3-222.2C987.1,365.3,966.1,328.9,932.4,328.9
					"/>
				<path class="st3" d="M831.9,154.8H624.7c33.7,0,54.7,36.5,37.9,65.6L600,328.9h207.2l62.6-108.4
					C886.6,191.3,865.6,154.8,831.9,154.8"/>
				<path class="st4" d="M624.7,154.8h-49.4c-33.7,0-54.7,36.5-37.9,65.6L600,328.9h0h0l62.6-108.4
					C679.5,191.3,658.4,154.8,624.7,154.8"/>
				<polyline class="st5" points="807.2,328.9 600,328.9 600,328.9 600,328.9 634.7,388.9 703.6,508.3 807.2,328.9 				"/>
				<path class="st6" d="M392.8,328.9H267.6c-33.7,0-54.7,36.5-37.9,65.6l103.5,179.3c-16.7-29.1,4.4-65.5,38-65.5h125.2l0,0
					L392.8,328.9"/>
				<polyline class="st7" points="600,328.9 392.8,328.9 496.4,508.3 600,328.9 600,328.9 600,328.9 				"/>
				<path class="st8" d="M496.4,508.3H371.2c-33.6,0-54.7,36.3-38,65.5l24.8,43c8.4,14.6,23.2,21.9,37.9,21.9
					c14.7,0,29.5-7.3,37.9-21.9L496.4,508.3"/>
				<path class="st9" d="M703.6,508.3L600,687.8l62.6,108.4c8.4,14.6,23.2,21.9,37.9,21.9c14.7,0,29.5-7.3,37.9-21.9L842,616.7
					c-8.4,14.6-23.2,21.9-37.9,21.9c-14.7,0-29.5-7.3-37.9-21.9L703.6,508.3"/>
				<polyline class="st10" points="703.6,508.3 496.4,508.3 600,687.8 703.6,508.3 703.6,508.3 				"/>
				<path class="st11" d="M828.8,508.3H703.6l0,0l62.6,108.4c8.4,14.6,23.2,21.9,37.9,21.9c14.7,0,29.5-7.3,37.9-21.9l25.2-43.6
					C883.2,544.1,862.2,508.3,828.8,508.3"/>
			</g>
		</g>
	</g>
	<g>
		<g>
			<path class="st0" d="M237.3,1085.6l-16.7-40.3l-15.6,40.3c-0.9,1.9-2.2,2.9-4.1,2.9h-13.4c-1.9,0-3.2-1-4-2.9l-44.1-111.7
				c-0.4-1.1-0.4-1.9,0.1-2.5c0.5-0.6,1.2-1,2.1-1h18c1.9,0,3.2,1,4,3l30.4,82.1l30.4-82.1c0.7-2,2-3,3.8-3h18.6c1,0,1.6,0.3,2.1,1
				c0.4,0.7,0.5,1.5,0.2,2.5l-17,42.3l15.4,39.2l31.2-82c0.7-2,2.1-3,4-3h18.6c1.1,0,1.8,0.3,2.3,1c0.5,0.6,0.5,1.5-0.1,2.5
				l-45.4,111.7c-0.4,1.1-1,1.8-1.7,2.2c-0.7,0.4-1.5,0.6-2.3,0.6h-12.7C239.5,1088.5,238.1,1087.5,237.3,1085.6z"/>
			<path class="st0" d="M329.7,1085.3V973.7c0-2.2,1.1-3.3,3.2-3.3h17.2c2,0,3,1.1,3,3.3v111.6c0,2.1-1,3.2-3,3.2h-17.2
				C330.7,1088.5,329.7,1087.4,329.7,1085.3z"/>
			<path class="st0" d="M385.6,973.7c0-1,0.3-1.8,1-2.5c0.6-0.7,1.5-1,2.7-1h16.2c2.2,0,3.4,1.2,3.5,3.5v93.1h46.5
				c1,0,1.8,0.3,2.5,1c0.7,0.6,1,1.5,1,2.7v14.5c0,2.2-1.2,3.4-3.5,3.5h-66.4c-2.3,0-3.5-1.2-3.5-3.5V973.7z"/>
			<path class="st0" d="M487.1,973.7c0-1,0.3-1.8,1-2.5c0.6-0.7,1.5-1,2.7-1H507c2.2,0,3.4,1.2,3.5,3.5v93.1H557c1,0,1.8,0.3,2.5,1
				c0.7,0.6,1,1.5,1,2.7v14.5c0,2.2-1.2,3.4-3.5,3.5h-66.4c-2.3,0-3.5-1.2-3.5-3.5V973.7z"/>
			<path class="st0" d="M588.6,1085.3V973.5c0-2.1,1-3.2,3-3.2h76.2c2.1,0,3.2,1.1,3.2,3.2V989c0,2.1-1.1,3.2-3.2,3.2h-56v31.2h42.8
				c2,0,3,1.1,3,3.2v14.6c0,2.1-1,3.2-3,3.2h-42.8v40.9c0,2.1-1.1,3.2-3.2,3.2h-17C589.6,1088.5,588.6,1087.4,588.6,1085.3z"/>
			<path class="st0" d="M811.5,1029.4c0,8.4-1.6,16.3-4.8,23.6c-3.2,7.4-7.5,13.8-13.1,19.3c-5.5,5.5-12,9.8-19.4,13
				c-7.4,3.2-15.3,4.8-23.7,4.8c-8.4,0-16.3-1.6-23.6-4.8c-7.4-3.2-13.8-7.5-19.3-13c-5.5-5.5-9.8-11.9-12.9-19.3
				c-3.1-7.4-4.7-15.3-4.7-23.6c0-8.5,1.6-16.4,4.7-23.8c3.1-7.4,7.4-13.8,12.9-19.3c5.5-5.5,11.9-9.8,19.3-13
				c7.4-3.2,15.3-4.8,23.6-4.8c8.4,0,16.3,1.6,23.7,4.8c7.4,3.2,13.9,7.5,19.4,13c5.5,5.5,9.9,11.9,13.1,19.3
				C809.9,1013,811.5,1020.9,811.5,1029.4z M788.1,1029.4c0-5.4-1-10.4-2.9-15.1c-1.9-4.7-4.5-8.7-7.9-12.2
				c-3.3-3.4-7.3-6.2-11.9-8.2c-4.6-2-9.6-3-15-3c-5.3,0-10.2,1-14.8,3c-4.6,2-8.5,4.7-11.9,8.2c-3.3,3.5-5.9,7.5-7.8,12.2
				c-1.9,4.7-2.8,9.7-2.8,15.1c0,5.3,0.9,10.3,2.8,15c1.9,4.7,4.5,8.7,7.8,12.2c3.3,3.4,7.3,6.2,11.9,8.2c4.6,2,9.5,3,14.8,3
				c5.4,0,10.4-1,15-3c4.6-2,8.5-4.7,11.9-8.2c3.3-3.4,6-7.5,7.9-12.2C787.2,1039.7,788.1,1034.7,788.1,1029.4z"/>
			<path class="st0" d="M837.7,1085.3V973.5c0-0.8,0.2-1.6,0.7-2.2c0.5-0.6,1.2-1,2.3-1h50.6c5.4,0,10.4,1.1,15,3.3
				c4.6,2.2,8.6,5.1,11.9,8.7c3.3,3.6,5.9,7.7,7.7,12.4c1.9,4.7,2.8,9.5,2.8,14.5c0,6.7-1.8,13-5.5,18.9
				c-3.7,5.9-8.5,10.6-14.6,14.1l21.6,43c0.4,0.7,0.4,1.5,0.1,2.2c-0.4,0.7-1.1,1.1-2.2,1.1h-20.5c-1.6,0-2.8-0.9-3.7-2.7
				l-18.9-38.2h-24.2v37.7c0,2.1-1.1,3.2-3.2,3.2h-17C838.7,1088.5,837.7,1087.4,837.7,1085.3z M885.8,990.9h-24.8v35.7h24.8
				c5.5,0,10.1-1.7,13.8-5c3.7-3.3,5.5-7.6,5.5-12.8c0-2.5-0.5-4.9-1.4-7.1c-1-2.2-2.3-4.1-4.1-5.7c-1.8-1.6-3.8-2.8-6.1-3.7
				C891.1,991.3,888.5,990.9,885.8,990.9z"/>
			<path class="st0" d="M960,1085.3V973.5c0-2.1,1.1-3.2,3.2-3.2h38c7.5,0,14.9,1.5,22,4.5c7.2,3,13.5,7.2,19.1,12.5
				c5.6,5.3,10.1,11.6,13.5,18.8c3.4,7.2,5.1,15,5.1,23.2c0,8-1.5,15.5-4.5,22.5c-3,7.1-7.2,13.2-12.6,18.5
				c-5.4,5.3-11.6,9.5-18.8,12.7c-7.2,3.2-14.9,4.9-23.2,5.3h-38.7C961.1,1088.5,960,1087.4,960,1085.3z M1037.5,1029.4
				c0-5.2-1-10.1-2.9-14.6c-2-4.6-4.6-8.5-8-11.9c-3.4-3.4-7.5-6.1-12.2-8c-4.7-2-9.8-2.9-15.2-2.9h-15.8v75.1h15.8
				c5.4,0,10.5-1,15.2-2.9c4.7-2,8.8-4.6,12.2-8c3.4-3.4,6.1-7.4,8-11.9C1036.5,1039.5,1037.5,1034.6,1037.5,1029.4z"/>
		</g>
		<g>
			<path class="st0" d="M221.8,1179.2c-0.5-0.5-0.8-1.1-1.1-1.6c-0.2-0.5,0-1.1,0.6-1.8l5.9-5.8c0.5-0.5,1-0.6,1.5-0.5
				s1,0.5,1.5,0.9c0.9,0.9,1.9,1.8,2.9,2.7c1.1,0.9,2.3,1.7,3.5,2.5c1.3,0.7,2.6,1.3,4.1,1.8c1.5,0.4,3,0.7,4.7,0.7
				c1.8,0,3.3-0.2,4.7-0.7c1.4-0.5,2.5-1.1,3.5-1.9c1-0.8,1.7-1.7,2.2-2.7c0.5-1,0.7-2.1,0.7-3.2c0-1.4-0.4-2.6-1.3-3.6
				c-0.9-1-1.9-1.8-3.1-2.5c-1.2-0.7-2.6-1.2-4-1.7c-1.4-0.4-2.7-0.8-3.9-1.1c-7.1-2.1-12.5-4.7-16.2-7.8c-3.7-3.1-5.6-7.1-5.6-12.1
				c0-2.7,0.6-5.2,1.7-7.4c1.1-2.2,2.8-4.2,4.8-5.8c2.1-1.6,4.6-2.9,7.5-3.7c2.9-0.9,6.2-1.3,9.7-1.3c3.9,0,7.6,0.9,11.1,2.7
				c3.6,1.8,6.6,4.1,9.3,6.7c1.1,1.1,1,2.3-0.1,3.4l-4.8,5.2c-0.6,0.5-1.1,0.7-1.7,0.5c-0.5-0.2-1.1-0.5-1.7-1
				c-0.7-0.6-1.5-1.2-2.4-1.9c-0.9-0.7-1.9-1.4-3-2c-1.1-0.6-2.2-1.1-3.4-1.5c-1.2-0.4-2.5-0.6-3.7-0.6c-1.1,0-2.3,0.1-3.5,0.3
				c-1.2,0.2-2.3,0.5-3.3,1c-1,0.5-1.8,1.2-2.4,2.1c-0.6,0.9-1,2.1-1,3.7c0,1.1,0.3,2.1,0.9,2.9c0.6,0.8,1.5,1.5,2.6,2.2
				c1.1,0.6,2.5,1.2,4.1,1.7c1.6,0.5,3.3,1.1,5.1,1.6c3,0.9,5.8,1.9,8.5,2.9c2.6,1.1,4.9,2.4,6.9,4c2,1.6,3.5,3.5,4.7,5.6
				c1.2,2.2,1.8,4.8,1.8,7.8s-0.7,5.8-2,8.3c-1.4,2.5-3.2,4.6-5.4,6.4c-2.3,1.8-4.9,3.1-7.8,4.1c-3,0.9-6,1.4-9.2,1.4
				c-4.6,0-9-1-13.2-3C228.4,1185,224.8,1182.4,221.8,1179.2z"/>
			<path class="st0" d="M299.4,1133.8v-8.4c0-1.1,0.6-1.7,1.7-1.7h46.2c1.2,0,1.8,0.6,1.8,1.7v8.4c0,1.2-0.6,1.8-1.8,1.8h-16.9v51.8
				c0,1.2-0.6,1.8-1.7,1.8h-9.5c-1.1,0-1.7-0.6-1.7-1.8v-51.8h-16.5C300,1135.6,299.4,1135,299.4,1133.8z"/>
			<path class="st0" d="M382.4,1187.4v-61.8c0-0.5,0.1-0.9,0.4-1.2c0.3-0.4,0.7-0.5,1.3-0.5h28c3,0,5.8,0.6,8.3,1.8
				c2.6,1.2,4.7,2.8,6.6,4.8c1.8,2,3.2,4.3,4.3,6.9c1,2.6,1.5,5.3,1.5,8c0,3.7-1,7.2-3,10.4c-2,3.3-4.7,5.9-8.1,7.8l12,23.8
				c0.2,0.4,0.3,0.8,0,1.2c-0.2,0.4-0.6,0.6-1.2,0.6h-11.4c-0.9,0-1.6-0.5-2-1.5l-10.5-21.1h-13.4v20.9c0,1.2-0.6,1.8-1.8,1.8H384
				C382.9,1189.1,382.4,1188.5,382.4,1187.4z M409,1135.1h-13.7v19.7H409c3.1,0,5.6-0.9,7.6-2.8c2-1.8,3-4.2,3-7.1
				c0-1.4-0.3-2.7-0.8-3.9c-0.5-1.2-1.3-2.2-2.2-3.1c-1-0.9-2.1-1.6-3.4-2.1C411.9,1135.4,410.5,1135.1,409,1135.1z"/>
			<path class="st0" d="M463.4,1187.3l24.8-61.8c0.5-1.1,1.3-1.7,2.2-1.7h7.4c1.1,0,1.8,0.6,2.2,1.7l24.8,61.8c0.3,0.6,0.3,1,0,1.4
				c-0.3,0.3-0.7,0.5-1.3,0.5h-9.6c-1.1,0-1.8-0.5-2.2-1.6l-4.2-10.6h-27l-4.1,10.6c-0.4,1.1-1.1,1.6-2.2,1.6h-9.7
				C463.3,1189.1,462.9,1188.5,463.4,1187.3z M494.2,1140.7l-9.4,24.9h18.7L494.2,1140.7z"/>
			<path class="st0" d="M545.5,1133.8v-8.4c0-1.1,0.6-1.7,1.7-1.7h46.2c1.2,0,1.8,0.6,1.8,1.7v8.4c0,1.2-0.6,1.8-1.8,1.8h-16.9v51.8
				c0,1.2-0.6,1.8-1.7,1.8h-9.5c-1.1,0-1.7-0.6-1.7-1.8v-51.8h-16.5C546.1,1135.6,545.5,1135,545.5,1133.8z"/>
			<path class="st0" d="M628.5,1187.4v-61.8c0-1.2,0.6-1.8,1.7-1.8h43.1c1.2,0,1.8,0.6,1.8,1.8v8.5c0,1.2-0.6,1.8-1.8,1.8h-31.9
				v13.3h24.3c1.3,0,1.9,0.6,1.9,1.8v8.4c0,1.2-0.6,1.8-1.9,1.8h-24.3v16.1H674c1.2,0,1.8,0.6,1.8,1.8v8.5c0,1.2-0.6,1.8-1.8,1.8
				h-43.9C629,1189.1,628.5,1188.5,628.5,1187.4z"/>
			<path class="st0" d="M739.4,1178.1c1.7,0,3.4-0.2,5.2-0.7c1.8-0.5,3.4-1.2,4.8-2.3v-13.5c0-1.2,0.6-1.8,1.8-1.8h7.8
				c0.4,0,0.8,0.1,1.1,0.4c0.4,0.2,0.5,0.7,0.5,1.4v20c0,0.8-0.3,1.4-0.9,1.9c-2.6,1.8-5.7,3.3-9.2,4.6c-3.5,1.2-7.2,1.8-11.2,1.8
				c-4.6,0-9-0.9-13.1-2.6c-4.1-1.8-7.7-4.2-10.8-7.2c-3.1-3-5.5-6.6-7.3-10.7c-1.8-4.1-2.6-8.5-2.6-13.1c0-4.6,0.9-9,2.6-13.1
				c1.8-4.1,4.2-7.6,7.2-10.7s6.6-5.4,10.7-7.1c4.1-1.7,8.5-2.6,13.1-2.6c4,0,7.6,0.6,10.7,1.7c3.2,1.1,6.2,2.8,9,4.9
				c0.5,0.4,0.7,0.7,0.8,1.1c0.1,0.4-0.1,0.8-0.4,1.1l-5.2,7.5c-0.3,0.3-0.6,0.5-1.1,0.6c-0.4,0.1-0.9,0-1.4-0.4
				c-1.7-1.3-3.6-2.3-5.6-3.1c-2-0.8-4.3-1.2-6.7-1.2c-3.1,0-5.9,0.5-8.5,1.6c-2.6,1.1-4.9,2.6-6.8,4.5c-1.9,1.9-3.4,4.1-4.5,6.7
				c-1.1,2.5-1.6,5.3-1.6,8.3c0,3,0.6,5.8,1.7,8.5c1.1,2.7,2.6,5,4.5,7c1.9,2,4.2,3.6,6.8,4.7
				C733.6,1177.6,736.4,1178.2,739.4,1178.1z"/>
			<path class="st0" d="M798.1,1187.4v-61.7c0-1.2,0.6-1.8,1.8-1.8h9.5c1.1,0,1.7,0.6,1.7,1.8v61.7c0,1.2-0.6,1.8-1.7,1.8h-9.5
				C798.7,1189.1,798.1,1188.5,798.1,1187.4z"/>
			<path class="st0" d="M850.5,1187.4v-61.8c0-1.2,0.6-1.8,1.7-1.8h43.1c1.2,0,1.8,0.6,1.8,1.8v8.5c0,1.2-0.6,1.8-1.8,1.8h-31.9
				v13.3h24.3c1.3,0,1.9,0.6,1.9,1.8v8.4c0,1.2-0.6,1.8-1.9,1.8h-24.3v16.1H896c1.2,0,1.8,0.6,1.8,1.8v8.5c0,1.2-0.6,1.8-1.8,1.8
				h-43.9C851,1189.1,850.5,1188.5,850.5,1187.4z"/>
			<path class="st0" d="M930.9,1179.2c-0.5-0.5-0.8-1.1-1.1-1.6s0-1.1,0.6-1.8l5.9-5.8c0.5-0.5,1-0.6,1.5-0.5c0.5,0.1,1,0.5,1.5,0.9
				c0.9,0.9,1.9,1.8,2.9,2.7c1.1,0.9,2.3,1.7,3.5,2.5c1.3,0.7,2.6,1.3,4.1,1.8c1.5,0.4,3,0.7,4.7,0.7c1.8,0,3.3-0.2,4.7-0.7
				c1.3-0.5,2.5-1.1,3.5-1.9c1-0.8,1.7-1.7,2.2-2.7c0.5-1,0.7-2.1,0.7-3.2c0-1.4-0.4-2.6-1.3-3.6c-0.8-1-1.9-1.8-3.1-2.5
				c-1.2-0.7-2.6-1.2-4-1.7c-1.4-0.4-2.7-0.8-3.9-1.1c-7.1-2.1-12.5-4.7-16.2-7.8c-3.7-3.1-5.6-7.1-5.6-12.1c0-2.7,0.6-5.2,1.7-7.4
				c1.1-2.2,2.8-4.2,4.8-5.8c2.1-1.6,4.6-2.9,7.5-3.7c2.9-0.9,6.2-1.3,9.7-1.3c3.9,0,7.6,0.9,11.1,2.7c3.6,1.8,6.6,4.1,9.3,6.7
				c1.1,1.1,1,2.3-0.1,3.4l-4.8,5.2c-0.6,0.5-1.1,0.7-1.7,0.5c-0.5-0.2-1.1-0.5-1.7-1c-0.7-0.6-1.5-1.2-2.4-1.9
				c-0.9-0.7-1.9-1.4-3-2c-1.1-0.6-2.2-1.1-3.4-1.5c-1.2-0.4-2.5-0.6-3.7-0.6c-1.1,0-2.3,0.1-3.5,0.3c-1.2,0.2-2.3,0.5-3.3,1
				c-1,0.5-1.8,1.2-2.4,2.1c-0.6,0.9-1,2.1-1,3.7c0,1.1,0.3,2.1,0.9,2.9c0.6,0.8,1.5,1.5,2.6,2.2c1.1,0.6,2.5,1.2,4,1.7
				s3.3,1.1,5.2,1.6c3,0.9,5.8,1.9,8.5,2.9c2.6,1.1,4.9,2.4,6.9,4c2,1.6,3.5,3.5,4.7,5.6c1.2,2.2,1.8,4.8,1.8,7.8s-0.7,5.8-2,8.3
				c-1.3,2.5-3.2,4.6-5.4,6.4c-2.3,1.8-4.9,3.1-7.8,4.1c-3,0.9-6,1.4-9.2,1.4c-4.6,0-9-1-13.2-3
				C937.5,1185,933.9,1182.4,930.9,1179.2z"/>
		</g>
	</g>
</g>
</svg>
