<?xml version="1.0" encoding="utf-8"?>
<!-- Generator: Adobe Illustrator 21.0.0, SVG Export Plug-In . SVG Version: 6.00 Build 0)  -->
<svg version="1.1" id="YouTube_Icon" xmlns="http://www.w3.org/2000/svg" xmlns:xlink="http://www.w3.org/1999/xlink" x="0px"
	 y="0px" viewBox="0 0 1024 721" style="enable-background:new 0 0 1024 721;" xml:space="preserve">
<path d="M951,35.8H81.6c-29.2,0-52.9,23.7-52.9,52.9V625c0,29.2,23.7,52.9,52.9,52.9H951c29.2,0,52.9-23.7,52.9-52.9V88.7
	C1003.9,59.5,980.2,35.8,951,35.8z M785.5,145.8l-273.9,222l-274.9-222H785.5z M138.8,567.9V208.1l323.1,261
	c14,11.3,31.7,17.6,49.7,17.6c0,0,0,0,0.1,0c18.1,0,35.7-6.3,49.8-17.7l332.5-269.5v368.3H138.8z"/>
</svg>
