<?xml version="1.0" encoding="utf-8"?>
<!-- Generator: Adobe Illustrator 21.0.0, SVG Export Plug-In . SVG Version: 6.00 Build 0)  -->
<svg version="1.1" id="YouTube_Icon" xmlns="http://www.w3.org/2000/svg" xmlns:xlink="http://www.w3.org/1999/xlink" x="0px"
	 y="0px" viewBox="0 0 347 366.7" style="enable-background:new 0 0 347 366.7;" xml:space="preserve">
<style type="text/css">
	.st0{fill-rule:evenodd;clip-rule:evenodd;fill:#181616;}
</style>
<path class="st0" d="M173.5,31.2c-86.2,0-156,69.9-156,156.1c0,68.9,44.7,127.4,106.7,148.1c7.8,1.4,10.7-3.4,10.7-7.5
	c0-3.7-0.1-13.5-0.2-26.5C91.2,310.7,82,280.3,82,280.3c-7.1-18-17.3-22.8-17.3-22.8c-14.2-9.7,1.1-9.5,1.1-9.5
	c15.7,1.1,23.9,16.1,23.9,16.1c13.9,23.8,36.5,17,45.4,13c1.4-10.1,5.4-17,9.9-20.9c-34.7-3.9-71.1-17.3-71.1-77.1
	c0-17,6.1-31,16.1-41.9c-1.6-3.9-7-19.8,1.5-41.3c0,0,13.1-4.2,42.9,16c12.4-3.5,25.8-5.2,39.1-5.3c13.3,0.1,26.6,1.8,39.1,5.3
	c29.8-20.2,42.9-16,42.9-16c8.5,21.5,3.2,37.3,1.6,41.3c10,10.9,16,24.8,16,41.9c0,59.9-36.5,73.1-71.2,77
	c5.6,4.8,10.6,14.3,10.6,28.9c0,20.9-0.2,37.7-0.2,42.8c0,4.2,2.8,9,10.7,7.5c62-20.7,106.6-79.1,106.6-148
	C329.5,101,259.7,31.2,173.5,31.2z"/>
</svg>
