<?xml version="1.0" encoding="utf-8"?>
<!-- Generator: Adobe Illustrator 21.0.0, SVG Export Plug-In . SVG Version: 6.00 Build 0)  -->
<svg version="1.1" id="Layer_1" xmlns="http://www.w3.org/2000/svg" xmlns:xlink="http://www.w3.org/1999/xlink" x="0px" y="0px"
	 viewBox="0 0 600 600" style="enable-background:new 0 0 600 600;" xml:space="preserve">
<path d="M480.6,303.5c0-15.8-2.2-33.1-5.9-47.7h51.1v254c0,12.6-10.1,22.8-22.6,22.8H96.9c-12.5,0-22.6-10.2-22.6-22.8v-254h51.1
	c-3.7,14.6-5.9,31.9-5.9,47.7C119.4,404.3,200.3,486,300,486C399.7,486,480.6,404.3,480.6,303.5 M187.1,303.5
	c0-63,50.5-114,112.9-114c62.3,0,112.9,51,112.9,114c0,63-50.5,114.1-112.9,114.1C237.7,417.5,187.1,366.5,187.1,303.5 M412.1,165.5
	V97.3c0-12.6,10.2-22.8,22.7-22.8h68.2c12.6,0,22.8,10.2,22.8,22.8v68.3c0,12.6-10.2,22.8-22.8,22.8h-68.2
	C422.3,188.3,412.1,178.1,412.1,165.5 M74.3,7C36.9,7,6.6,37.6,6.6,75.4v456.2c0,37.8,30.3,68.4,67.7,68.4h451.5
	c37.4,0,67.7-30.6,67.7-68.4V75.4c0-37.8-30.3-68.4-67.7-68.4H74.3z"/>
</svg>
