<?xml version="1.0" encoding="utf-8"?>
<!-- Generator: Adobe Illustrator 21.0.0, SVG Export Plug-In . SVG Version: 6.00 Build 0)  -->
<svg version="1.1" id="Layer_1" xmlns="http://www.w3.org/2000/svg" xmlns:xlink="http://www.w3.org/1999/xlink" x="0px" y="0px"
	 viewBox="0 0 600 600" style="enable-background:new 0 0 600 600;" xml:space="preserve">
<style type="text/css">
	.st0{fill:#FFFFFF;}
</style>
<path class="st0" d="M808.1,300c0-4.7-0.7-9.8-1.8-14.1h15.2v75.3c0,3.7-3,6.8-6.7,6.8H694.4c-3.7,0-6.7-3-6.7-6.8v-75.3h15.2
	c-1.1,4.3-1.8,9.5-1.8,14.1c0,29.9,24,54.1,53.5,54.1C784.2,354.1,808.1,329.9,808.1,300 M721.1,300c0-18.7,15-33.8,33.5-33.8
	c18.5,0,33.5,15.1,33.5,33.8c0,18.7-15,33.8-33.5,33.8C736.1,333.8,721.1,318.7,721.1,300 M787.8,259.1v-20.2c0-3.7,3-6.7,6.7-6.7
	h20.2c3.7,0,6.8,3,6.8,6.7v20.2c0,3.7-3,6.7-6.8,6.7h-20.2C790.9,265.8,787.8,262.8,787.8,259.1 M687.7,212.1
	c-11.1,0-20.1,9.1-20.1,20.3v135.3c0,11.2,9,20.3,20.1,20.3h133.9c11.1,0,20.1-9.1,20.1-20.3V232.4c0-11.2-9-20.3-20.1-20.3H687.7z"
	/>
<path d="M480.6,303.5c0-15.8-2.2-33.1-5.9-47.7h51.1v254c0,12.6-10.1,22.8-22.6,22.8H96.9c-12.5,0-22.6-10.2-22.6-22.8v-254h51.1
	c-3.7,14.6-5.9,31.9-5.9,47.7C119.4,404.3,200.3,486,300,486C399.7,486,480.6,404.3,480.6,303.5 M187.1,303.5
	c0-63,50.5-114,112.9-114c62.3,0,112.9,51,112.9,114c0,63-50.5,114.1-112.9,114.1C237.7,417.5,187.1,366.5,187.1,303.5 M412.1,165.5
	V97.3c0-12.6,10.2-22.8,22.7-22.8h68.2c12.6,0,22.8,10.2,22.8,22.8v68.3c0,12.6-10.2,22.8-22.8,22.8h-68.2
	C422.3,188.3,412.1,178.1,412.1,165.5 M74.3,7C36.9,7,6.6,37.6,6.6,75.4v456.2c0,37.8,30.3,68.4,67.7,68.4h451.5
	c37.4,0,67.7-30.6,67.7-68.4V75.4c0-37.8-30.3-68.4-67.7-68.4H74.3z"/>
</svg>
