<svg id="Layer_1" data-name="Layer 1" xmlns="http://www.w3.org/2000/svg" viewBox="0 0 960 424"><defs><style>.cls-1{fill:#343434;}.cls-2{fill:#4cc5f3;}.cls-3{fill:#eb008b;opacity:0.8;}.cls-4{fill:#feeeb2;}.cls-5{fill:#fddd66;}.cls-6{fill:#42b7ba;}.cls-7{fill:#ab4cab;}.cls-8{fill:#fc7b87;}.cls-9{fill:#e02270;}</style></defs><title>Artboard 13zz</title><path class="cls-1" d="M421.94,155.8a6.57,6.57,0,0,0-4.94-2.12H383.13a6.55,6.55,0,0,0-4.94,2.12,7,7,0,0,0-1.9,4.92,6.7,6.7,0,0,0,6.84,6.84h9.31V274.14c0,8.68-1.12,15.55-3.34,20.41-2.09,4.59-6,7.69-12,9.47h0c-2,.63-5.36,2.27-5.36,6.14,0,4.53,2.56,7.24,6.84,7.24a16.19,16.19,0,0,0,5.75-1.14l.06,0c8.32-3.46,14.36-8.36,17.95-14.56s5.33-15,5.33-26.95V167.56H417a6.7,6.7,0,0,0,6.84-6.84A7.11,7.11,0,0,0,421.94,155.8Z"/><path class="cls-1" d="M519.78,264.15h-9.25c-1.2,0-1.43-.23-1.43-1.43V204.63a6.32,6.32,0,0,0-2.43-5,8.41,8.41,0,0,0-10.4,0,6.33,6.33,0,0,0-2.42,5v44.48c-6.67,11.58-15.33,17.21-26.44,17.21-3.75,0-6.65-.88-8.63-2.59s-2.85-4.05-2.85-7.31V214.87c0-6.89-3.16-15.11-18.26-15.11H430a6.68,6.68,0,0,0-6.83,6.84,7,7,0,0,0,1.89,4.92,6.56,6.56,0,0,0,4.94,2.11h7.68a4.73,4.73,0,0,1,2.66.52c.14.1.35.24.35.92v41.35c0,7.66,2.58,13.6,7.66,17.65S459.62,280,467.21,280a37.49,37.49,0,0,0,28-12.12,13.45,13.45,0,0,0,3.06,6.05c2.48,2.72,6.13,4.1,10.86,4.1h10.63a6.6,6.6,0,0,0,5-2.11,7.11,7.11,0,0,0,1.89-4.92,6.68,6.68,0,0,0-6.84-6.84Z"/><path class="cls-1" d="M563.3,264.15h-7.68c-3,0-3-.86-3-1.43v-130a6.62,6.62,0,0,0-2.36-5.09,7.82,7.82,0,0,0-5.26-2H526.67a6.58,6.58,0,0,0-4.94,2.12,7.11,7.11,0,0,0-1.89,4.92,6.68,6.68,0,0,0,6.83,6.84h10.69V262.91c0,6.9,3.17,15.11,18.26,15.11h7.68a6.68,6.68,0,0,0,6.84-6.84,7.15,7.15,0,0,0-1.9-4.92A6.6,6.6,0,0,0,563.3,264.15Z"/><path class="cls-1" d="M593.23,158.8a8.52,8.52,0,0,0-6.64,2.74,9.48,9.48,0,0,0,0,12.54,8.54,8.54,0,0,0,6.64,2.73,9,9,0,1,0,0-18Z"/><path class="cls-1" d="M594.8,199.76H575.7a6.57,6.57,0,0,0-4.94,2.12,7,7,0,0,0-1.89,4.92,6.68,6.68,0,0,0,6.83,6.83h10.69v59.52a6.31,6.31,0,0,0,2.43,5.05,8.43,8.43,0,0,0,10.39,0,6.33,6.33,0,0,0,2.43-5.05V206.6C601.64,202.32,599.09,199.76,594.8,199.76Z"/><path class="cls-1" d="M663.13,197.79a32.17,32.17,0,0,0-24.47,10.62V132.76a6.54,6.54,0,0,0-2.52-5.14,7.9,7.9,0,0,0-5.11-1.9H612.72a6.57,6.57,0,0,0-4.94,2.12,7.11,7.11,0,0,0-1.9,4.92,6.7,6.7,0,0,0,6.84,6.84h10.69V273.15a6.31,6.31,0,0,0,2.43,5.05,8.43,8.43,0,0,0,10.39,0,6.33,6.33,0,0,0,2.43-5.05v-1.76a41.19,41.19,0,0,0,25.26,8.6c10.89,0,19.77-3.91,26.37-11.64s9.81-17.59,9.81-29.66-3.2-22-9.51-29.45S675,197.79,663.13,197.79ZM685,238.5c0,8.47-2.08,15.33-6.18,20.4s-9.67,7.42-17.21,7.42c-7.34,0-15.07-3.55-23-10.54v-27.7c6.39-11.18,14.27-16.61,24.08-16.61,7,0,12.27,2.3,16.24,7.05S685,230,685,238.5Z"/><path class="cls-1" d="M787.13,236.92c0-11.65-2.92-21.15-8.69-28.24s-14.87-10.89-26.7-10.89-21.4,3.85-28.65,11.45-10.88,17.41-10.88,29.26,3.55,21.78,10.54,29.6,16.8,11.89,29,11.89c15.36,0,26.75-5.8,33.86-17.23a6.05,6.05,0,0,0,.5-5.47,7.14,7.14,0,0,0-3.59-4,10.19,10.19,0,0,0-4.58-1.13c-1.41,0-3.43.6-5.12,3.46-4.7,7.21-11.6,10.72-21.07,10.72-7,0-12.58-2.19-17-6.69-3.9-4-6.28-9.26-7.09-15.68l52-.19C784.35,243.76,787.13,241.2,787.13,236.92ZM736,217.27c4.33-3.9,9.59-5.8,16.07-5.8s11.11,1.81,14.43,5.53c2.93,3.29,4.75,7.69,5.4,13.08H728.4A25.43,25.43,0,0,1,736,217.27Z"/><path class="cls-1" d="M869.14,253.27a10.18,10.18,0,0,0-4.57-1.13c-1.41,0-3.44.6-5.12,3.46-4.71,7.21-11.6,10.72-21.07,10.72-7,0-12.58-2.19-17-6.69-3.89-4-6.27-9.26-7.09-15.68l52-.19c4.65,0,7.43-2.56,7.43-6.84,0-11.65-2.93-21.15-8.69-28.24s-14.87-10.89-26.7-10.89-21.4,3.85-28.65,11.45-10.88,17.41-10.88,29.26,3.55,21.78,10.53,29.6,16.81,11.89,29,11.89c15.35,0,26.75-5.8,33.86-17.23a6.08,6.08,0,0,0,.5-5.47A7.12,7.12,0,0,0,869.14,253.27Zm-46.54-36c4.33-3.9,9.58-5.8,16.07-5.8s11.11,1.81,14.42,5.53c2.94,3.29,4.76,7.69,5.41,13.08H815A25.43,25.43,0,0,1,822.6,217.27Z"/><polygon class="cls-2" points="278.66 174.31 278.67 174.31 278.67 174.31 278.66 174.31"/><path class="cls-2" d="M326.07,212a82.66,82.66,0,0,0-47.4-37.66,24.28,24.28,0,0,1-20.45,20.43v34.44a24.28,24.28,0,0,1,20.45,20.45h0a24.42,24.42,0,0,1,.26,3.55h0a24.27,24.27,0,0,1-23.5,24.25h-1.32a89.2,89.2,0,0,1-52.53,58.19h53.87A82.46,82.46,0,0,0,326.07,212Z"/><path class="cls-3" d="M172.22,170.82h0v58.36a24.26,24.26,0,1,1-27.55,27.56H86.31a82.44,82.44,0,0,0,164.8-3.56v-.08A82.45,82.45,0,0,1,172.22,170.82Z"/><path class="cls-3" d="M251.11,146.74V88.38a82.44,82.44,0,0,0-78.89,82.36v.08a82.44,82.44,0,0,1,78.89,82.28V194.74a24.26,24.26,0,0,1,0-48Z"/><path class="cls-4" d="M165.12,170.74H86.23v78.9h58.44a24.27,24.27,0,0,1,20.45-20.46V170.74"/><path class="cls-5" d="M258.22,88.38v58.36a24.26,24.26,0,0,1,0,48v34.45a24.29,24.29,0,0,1,20.45,20.44A82.45,82.45,0,0,0,258.22,88.38"/><path class="cls-6" d="M278.67,174.31a24.28,24.28,0,0,1-20.45,20.43v34.44a24.28,24.28,0,0,1,20.45,20.45A82.7,82.7,0,0,0,326.07,212a82.68,82.68,0,0,0-47.41-37.66"/><path class="cls-3" d="M172.22,170.82v58.36a24.26,24.26,0,0,1,20.71,24h0a24.26,24.26,0,0,1-24.26,24.26h78.82a82.64,82.64,0,0,0,3.62-24.25v-.08a82.45,82.45,0,0,1-78.89-82.28h0"/><path class="cls-7" d="M144.67,256.74H86.31a82.45,82.45,0,0,0,161.18,20.69H168.67a24.26,24.26,0,0,1-24-20.7"/><path class="cls-8" d="M251.11,88.38a82.44,82.44,0,0,0-78.89,82.36v.08a82.44,82.44,0,0,1,78.89,82.28h0V194.74a24.27,24.27,0,0,1-20.71-24h0a24.27,24.27,0,0,1,20.71-24V88.38"/><path class="cls-9" d="M172.22,170.82a82.45,82.45,0,0,0,78.89,82.28,82.44,82.44,0,0,0-78.89-82.28"/></svg>